<?xml version="1.0" encoding="utf-8"?>
<svg xmlns="http://www.w3.org/2000/svg" viewBox="0 0 500 500" xmlns:bx="https://boxy-svg.com" width="500px" height="500px"><defs><bx:export><bx:file format="svg"/></bx:export></defs><path d="M 175.969 102.923 C 176.281 102.916 176.603 102.91 176.926 102.903 C 178.852 102.901 180.142 103.057 181.681 104.347 C 181.681 104.631 181.681 104.914 181.681 105.205 C 181.94 105.321 182.187 105.437 182.445 105.556 C 183.381 106.07 183.973 106.516 184.64 107.355 C 184.64 107.781 184.64 108.206 184.64 108.644 C 184.909 108.644 185.189 108.644 185.48 108.644 C 185.781 109.226 185.781 109.226 186.082 109.822 C 186.34 110.333 186.609 110.844 186.878 111.357 C 187.007 111.612 187.136 111.869 187.265 112.132 C 187.953 113.454 188.632 114.493 189.696 115.52 C 190.009 116.26 190.321 116.999 190.622 117.748 C 191.149 118.963 191.913 120.008 192.645 121.107 C 193.043 121.774 193.419 122.446 193.795 123.121 C 194.076 123.602 194.076 123.602 194.345 124.093 C 194.753 124.974 194.753 124.974 194.753 126.263 C 195.162 126.405 195.581 126.548 196.012 126.693 C 196.582 127.587 196.582 127.587 197.174 128.761 C 199.261 132.819 201.574 136.738 203.898 140.652 C 204.726 142.044 205.522 143.446 206.287 144.871 C 207.492 147.098 208.803 149.248 210.127 151.402 C 211.644 153.863 213.118 156.33 214.485 158.878 C 215.248 160.275 216.066 161.64 216.873 163.005 C 217.917 164.762 218.949 166.518 219.908 168.323 C 220.585 169.591 221.317 170.784 222.123 171.976 C 223.812 174.516 225.179 177.226 226.588 179.936 C 227.513 181.709 228.428 183.434 229.6 185.056 C 231.838 188.203 231.838 188.203 231.838 189.863 C 232.118 189.863 232.398 189.863 232.678 189.863 C 232.904 190.343 233.13 190.821 233.366 191.315 C 234.432 193.48 235.657 195.534 236.895 197.598 C 237.767 199.076 238.627 200.564 239.478 202.057 C 240.811 204.403 242.178 206.733 243.555 209.055 C 244.308 210.326 245.05 211.601 245.761 212.893 C 246.751 214.655 247.847 216.339 248.956 218.031 C 249.536 219.085 249.536 219.085 249.536 220.374 C 250.774 220.237 251.151 220.033 251.946 219.036 C 252.173 218.644 252.409 218.252 252.646 217.85 C 252.903 217.42 253.162 216.99 253.421 216.547 C 254.325 214.953 255.185 213.341 256.035 211.719 C 257.014 209.924 258.079 208.194 259.144 206.451 C 260.209 204.701 261.22 202.922 262.232 201.144 C 263.501 198.922 264.814 196.758 266.245 194.636 C 267.783 192.212 269.063 189.616 270.29 187.016 C 271.033 185.567 271.033 185.567 271.872 185.137 C 272.355 184.375 272.355 184.375 272.818 183.444 C 273.593 181.997 274.378 180.578 275.217 179.174 C 276.067 177.743 276.874 176.299 277.638 174.822 C 278.984 172.275 280.478 169.819 281.974 167.359 C 283.125 165.455 284.222 163.529 285.277 161.567 C 286.029 160.184 286.826 158.827 287.622 157.473 C 287.783 157.198 287.945 156.923 288.117 156.638 C 289.344 154.564 290.613 152.517 291.893 150.478 C 292.711 149.16 293.464 147.818 294.206 146.461 C 294.615 145.779 295.014 145.099 295.422 144.42 C 296.283 142.97 297.09 141.509 297.876 140.015 C 299.22 137.465 300.716 135.014 302.201 132.551 C 303.492 130.41 304.713 128.247 305.871 126.028 C 306.666 124.539 307.526 123.093 308.389 121.645 C 308.994 120.621 309.569 119.584 310.145 118.543 C 310.844 117.324 311.578 116.129 312.307 114.928 C 313.818 112.437 315.306 109.934 316.565 107.296 C 317.013 106.409 317.482 105.845 318.233 105.205 C 318.51 105.205 318.789 105.205 319.076 105.205 C 319.216 104.781 319.354 104.356 319.497 103.917 C 321.061 102.687 323.04 102.9 324.923 102.896 C 325.423 102.881 325.423 102.881 325.933 102.865 C 328.763 102.85 330.182 103.838 332.352 105.662 C 334.172 107.844 335.803 110.529 336.355 113.372 C 336.634 113.372 336.913 113.372 337.198 113.372 C 337.507 113.935 337.813 114.5 338.12 115.063 C 338.313 115.417 338.507 115.772 338.707 116.138 C 339.081 116.826 339.453 117.516 339.826 118.206 C 340.981 120.346 342.197 122.44 343.463 124.516 C 343.941 125.404 343.941 125.404 343.941 126.263 C 344.22 126.263 344.497 126.263 344.785 126.263 C 344.891 126.498 345.001 126.735 345.112 126.977 C 347.054 131.078 349.401 134.933 351.777 138.783 C 351.96 139.078 352.141 139.374 352.331 139.678 C 352.675 140.236 353.022 140.792 353.371 141.35 C 354.341 142.913 355.236 144.502 356.096 146.132 C 357.719 149.2 359.538 152.143 361.353 155.098 C 361.609 155.518 361.864 155.938 362.126 156.372 C 362.473 156.937 362.473 156.937 362.826 157.514 C 363.328 158.492 363.328 158.492 363.328 159.782 C 363.606 159.782 363.884 159.782 364.17 159.782 C 364.309 160.049 364.448 160.315 364.59 160.591 C 366.053 163.368 367.602 166.075 369.234 168.751 C 370.005 170.032 370.688 171.175 370.914 172.675 C 371.191 172.675 371.471 172.675 371.756 172.675 C 371.984 173.152 372.209 173.632 372.442 174.125 C 373.107 175.483 373.826 176.791 374.597 178.088 C 375.517 179.64 376.429 181.197 377.327 182.762 C 377.555 183.156 377.783 183.551 378.017 183.959 C 378.48 184.763 378.942 185.568 379.403 186.374 C 380.681 188.59 382.004 190.757 383.429 192.88 C 383.974 193.725 384.457 194.586 384.926 195.478 C 385.617 196.785 386.356 198.046 387.138 199.296 C 387.33 199.6 387.518 199.904 387.716 200.216 C 388.098 200.824 388.483 201.432 388.872 202.037 C 389.825 203.557 390.541 204.786 390.721 206.622 C 391 206.622 391.278 206.622 391.564 206.622 C 391.687 206.853 391.811 207.081 391.937 207.317 C 393.301 209.845 394.735 212.322 396.2 214.788 C 396.631 215.513 397.061 216.237 397.491 216.963 C 397.772 217.437 397.772 217.437 398.059 217.918 C 398.604 218.866 399.128 219.82 399.646 220.782 C 401.126 223.509 402.697 226.183 404.261 228.861 C 404.565 229.384 404.869 229.908 405.174 230.431 C 406.394 232.525 407.615 234.616 408.843 236.703 C 409.138 237.209 409.43 237.713 409.722 238.218 C 410.045 238.77 410.365 239.322 410.687 239.873 C 410.845 240.146 411.003 240.419 411.165 240.699 C 412.13 242.35 413.163 243.917 414.271 245.471 C 414.895 246.378 415.402 247.325 415.902 248.308 C 416.935 250.28 418.031 252.199 419.169 254.108 C 420.307 256.019 421.404 257.937 422.435 259.909 C 423.251 261.463 424.135 262.86 425.164 264.269 C 426.073 265.62 426.797 267.073 427.553 268.516 C 429.72 272.617 429.72 272.617 432.261 276.481 C 433.9 278.739 435.094 281.289 436.376 283.768 C 437.915 286.705 439.598 289.541 441.312 292.374 C 442.467 294.281 443.583 296.204 444.665 298.156 C 444.967 298.683 445.267 299.209 445.568 299.737 C 445.865 300.256 446.161 300.777 446.457 301.298 C 446.688 301.697 446.688 301.697 446.921 302.105 C 448.037 304.075 448.037 304.075 448.037 305.031 C 448.316 305.031 448.594 305.031 448.881 305.031 C 449.496 306.17 449.723 306.705 449.723 308.04 C 450.002 308.04 450.28 308.04 450.566 308.04 C 451.113 308.813 451.113 308.813 451.725 309.893 C 451.952 310.289 452.177 310.685 452.408 311.092 C 453.259 312.632 454.09 314.18 454.914 315.733 C 457.343 320.289 459.87 324.756 462.596 329.134 C 463.585 330.729 464.536 332.344 465.485 333.964 C 466.186 335.156 466.896 336.343 467.608 337.528 C 467.854 337.939 468.103 338.35 468.356 338.773 C 468.857 339.608 469.361 340.442 469.864 341.277 C 474.552 349.094 474.552 349.094 475.011 351.443 C 475.288 351.443 475.566 351.443 475.853 351.443 C 475.992 351.868 476.132 352.294 476.275 352.732 C 476.692 352.944 476.692 352.944 477.117 353.162 C 477.117 361.104 477.117 369.045 477.117 377.226 C 475.803 377.896 474.399 377.76 472.955 377.793 C 472.425 377.806 472.425 377.806 471.885 377.819 C 470.678 377.848 469.471 377.874 468.263 377.897 C 467.834 377.907 467.406 377.915 466.964 377.926 C 453.452 378.203 439.937 378.129 426.423 378.097 C 424.589 378.093 422.756 378.09 420.923 378.085 C 414.813 378.073 408.703 378.059 402.592 378.042 C 402.206 378.04 401.82 378.039 401.423 378.038 C 401.036 378.037 400.648 378.036 400.249 378.035 C 399.466 378.033 398.683 378.031 397.899 378.029 C 397.51 378.028 397.12 378.028 396.721 378.027 C 390.374 378.009 384.028 377.999 377.681 377.992 C 371.126 377.984 364.571 377.97 358.015 377.952 C 354.35 377.941 350.684 377.932 347.019 377.932 C 343.913 377.931 340.805 377.924 337.698 377.909 C 336.117 377.901 334.535 377.897 332.953 377.899 C 331.238 377.902 329.521 377.894 327.808 377.882 C 327.31 377.885 326.811 377.889 326.298 377.891 C 322.975 377.853 320.684 377.377 318.116 375.079 C 317.885 374.795 317.654 374.512 317.416 374.219 C 317.179 373.934 316.94 373.651 316.694 373.359 C 315.457 371.487 315.655 369.418 315.678 367.236 C 315.681 366.754 315.681 366.754 315.684 366.266 C 315.688 365.478 315.696 364.692 315.705 363.904 C 315.982 363.904 316.261 363.904 316.547 363.904 C 316.595 363.593 316.643 363.283 316.692 362.961 C 316.982 361.699 317.402 360.791 318.022 359.661 C 318.249 359.25 318.475 358.839 318.707 358.415 C 319.749 356.588 320.816 354.777 321.891 352.969 C 323.04 351.027 324.126 349.06 325.176 347.062 C 325.927 345.651 326.715 344.264 327.505 342.875 C 328.563 341.006 329.556 339.122 330.482 337.181 C 331.509 335.039 332.694 333.062 333.971 331.066 C 335.218 329.085 336.296 327.01 337.379 324.933 C 341.865 316.4 341.865 316.4 345.416 315.169 C 348.092 314.525 350.722 314.302 353.239 315.56 C 354.294 316.294 355.258 317.004 356.163 317.923 C 356.163 318.207 356.163 318.49 356.163 318.784 C 356.441 318.784 356.72 318.784 357.006 318.784 C 358.524 321.557 358.735 324.247 358.27 327.378 C 357.609 329.213 356.742 330.881 355.787 332.568 C 355.301 333.427 354.831 334.294 354.363 335.162 C 353.673 336.442 352.977 337.717 352.276 338.991 C 350.937 341.431 349.625 343.884 348.313 346.339 C 348.089 346.76 347.865 347.181 347.632 347.614 C 347.105 348.603 346.577 349.594 346.049 350.583 C 345.77 350.583 345.492 350.583 345.206 350.583 C 345.18 350.929 345.154 351.274 345.126 351.631 C 344.733 353.394 344.02 354.685 343.122 356.232 C 342.642 356.939 342.642 356.939 342.676 357.459 C 348.444 357.942 354.191 357.947 359.974 357.937 C 361.025 357.937 362.076 357.937 363.128 357.937 C 365.378 357.937 367.628 357.936 369.88 357.934 C 373.134 357.93 376.387 357.93 379.642 357.929 C 384.922 357.928 390.203 357.926 395.484 357.921 C 400.61 357.918 405.735 357.914 410.861 357.913 C 411.177 357.913 411.493 357.912 411.82 357.912 C 413.409 357.912 414.999 357.911 416.587 357.91 C 429.74 357.907 442.892 357.899 456.044 357.888 C 455.553 356.35 455.065 354.929 454.287 353.518 C 454.026 353.039 454.026 353.039 453.758 352.552 C 453.575 352.22 453.389 351.891 453.201 351.55 C 453.011 351.207 452.821 350.862 452.626 350.509 C 451.279 348.072 449.894 345.663 448.459 343.278 C 448.063 342.607 447.668 341.935 447.275 341.262 C 447.067 340.912 446.861 340.56 446.648 340.198 C 440.795 330.251 440.795 330.251 440.2 329.24 C 439.786 328.539 439.37 327.84 438.952 327.141 C 437.983 325.518 437.043 323.908 436.237 322.194 C 435.443 320.504 434.427 319.009 433.36 317.486 C 432.865 316.634 432.865 316.634 432.865 315.344 C 432.588 315.344 432.309 315.344 432.023 315.344 C 431.9 315.116 431.777 314.884 431.65 314.646 C 430.301 312.143 428.872 309.699 427.414 307.262 C 425.744 304.455 424.176 301.662 422.83 298.678 C 422.332 297.731 421.814 297.178 421.065 296.437 C 420.633 295.666 420.633 295.666 420.249 294.826 C 419.688 293.627 419.095 292.476 418.432 291.333 C 417.693 289.991 417.693 289.991 417.693 289.132 C 417.416 289.132 417.137 289.132 416.852 289.132 C 416.341 288.227 415.832 287.323 415.324 286.419 C 415.169 286.147 415.017 285.874 414.859 285.593 C 413.925 283.929 413.021 282.254 412.136 280.563 C 411.43 279.228 410.698 277.973 409.818 276.749 C 408.901 275.46 408.266 274.229 407.579 272.802 C 406.752 271.36 405.899 269.933 405.052 268.504 C 403.365 265.64 403.365 265.64 403.365 264.637 C 403.087 264.637 402.808 264.637 402.521 264.637 C 402.415 264.432 402.306 264.228 402.194 264.018 C 401.02 261.828 399.783 259.682 398.518 257.546 C 397.31 255.507 396.135 253.458 395.013 251.369 C 393.322 248.206 393.322 248.206 391.278 245.28 C 390.721 244.44 390.721 244.44 390.721 242.72 C 390.443 242.72 390.165 242.72 389.878 242.72 C 389.74 242.011 389.601 241.302 389.457 240.572 C 389.179 240.572 388.9 240.572 388.614 240.572 C 388.475 239.862 388.337 239.153 388.193 238.424 C 387.915 238.424 387.637 238.424 387.35 238.424 C 386.926 237.655 386.506 236.885 386.086 236.114 C 385.733 235.469 385.733 235.469 385.375 234.815 C 384.82 233.696 384.82 233.696 384.82 232.837 C 384.543 232.837 384.265 232.837 383.978 232.837 C 383.978 232.269 383.978 231.703 383.978 231.118 C 383.701 231.118 383.422 231.118 383.135 231.118 C 382.275 229.869 381.872 229.226 381.872 227.681 C 381.593 227.681 381.314 227.681 381.028 227.681 C 380.323 226.41 379.622 225.139 378.92 223.866 C 378.619 223.323 378.619 223.323 378.313 222.77 C 378.122 222.424 377.932 222.078 377.736 221.721 C 377.559 221.401 377.383 221.081 377.2 220.752 C 376.814 219.944 376.814 219.944 376.814 219.085 C 376.536 219.085 376.257 219.085 375.97 219.085 C 374.988 217.336 374.007 215.586 373.027 213.835 C 372.661 213.18 372.291 212.523 371.921 211.868 C 371.737 211.538 371.553 211.208 371.361 210.867 C 371.122 210.44 371.122 210.44 370.877 210.004 C 370.478 209.171 370.257 208.387 370.07 207.482 C 369.792 207.482 369.514 207.482 369.228 207.482 C 369.121 207.242 369.011 207.002 368.9 206.754 C 367.692 204.172 366.282 201.807 364.748 199.421 C 363.564 197.573 362.517 195.686 361.508 193.734 C 360.409 191.731 359.185 189.807 357.955 187.885 C 356.584 185.705 356.584 185.705 356.584 184.277 C 356.306 184.277 356.028 184.277 355.742 184.277 C 355.538 183.884 355.335 183.49 355.126 183.085 C 354.857 182.569 354.589 182.054 354.32 181.538 C 354.185 181.278 354.052 181.019 353.914 180.752 C 353.334 179.642 352.826 178.726 351.949 177.831 C 351.83 177.519 351.71 177.207 351.589 176.885 C 350.991 175.397 350.158 174.115 349.289 172.782 C 348.043 170.842 346.863 168.902 345.784 166.86 C 344.994 165.412 344.151 163.994 343.309 162.575 C 342.087 160.513 340.902 158.44 339.768 156.327 C 339.151 155.203 338.484 154.119 337.81 153.033 C 335.892 149.942 334.002 146.841 332.295 143.624 C 331.261 141.771 330.129 139.978 329.012 138.176 C 328.347 137.007 328.347 137.007 328.347 136.147 C 328.07 136.147 327.792 136.147 327.505 136.147 C 327.218 135.536 327.218 135.536 326.925 134.911 C 326.325 133.568 326.325 133.568 325.398 132.709 C 324.98 132.709 324.563 132.709 324.133 132.709 C 323.993 133.277 323.855 133.844 323.712 134.428 C 323.434 134.428 323.154 134.428 322.869 134.428 C 322.801 134.895 322.801 134.895 322.73 135.372 C 322.427 136.664 321.978 137.525 321.288 138.645 C 321.06 139.019 320.833 139.394 320.598 139.779 C 320.374 140.141 320.15 140.502 319.918 140.874 C 318.274 143.53 316.749 146.23 315.272 148.987 C 314.569 150.273 313.823 151.484 312.965 152.665 C 312.043 153.95 311.362 155.265 310.689 156.699 C 309.566 158.966 308.237 161.13 306.827 163.22 C 305.698 165.005 304.808 166.895 303.905 168.807 C 303.626 168.807 303.347 168.807 303.061 168.807 C 302.922 169.516 302.782 170.224 302.639 170.955 C 302.361 170.955 302.083 170.955 301.791 170.955 C 301.748 171.266 301.706 171.577 301.663 171.895 C 301.35 173.224 300.887 174.143 300.113 175.253 C 299.834 175.253 299.554 175.253 299.274 175.253 C 299.123 175.962 298.994 176.671 298.844 177.401 C 298.564 177.401 298.295 177.401 298.005 177.401 C 297.918 177.781 297.918 177.781 297.843 178.167 C 297.424 179.691 296.616 181.006 295.842 182.369 C 295.67 182.676 295.508 182.981 295.325 183.294 C 294.12 185.451 292.851 187.56 291.517 189.636 C 290.172 191.791 288.989 194.038 287.761 196.267 C 286.32 198.9 284.858 201.508 283.254 204.044 C 281.747 206.479 280.264 208.912 278.908 211.43 C 277.918 213.256 276.874 215.044 275.81 216.823 C 275.304 217.707 274.841 218.593 274.4 219.515 C 274.12 219.515 273.851 219.515 273.561 219.515 C 273.443 219.824 273.323 220.135 273.205 220.454 C 271.516 224.602 269.15 229.17 266.362 232.639 C 265.545 233.7 265.169 234.593 264.706 235.845 C 264.309 236.614 263.878 237.376 263.448 238.128 C 263.232 238.507 263.007 238.886 262.791 239.278 C 262.49 239.706 262.49 239.706 262.179 240.143 C 261.898 240.143 261.629 240.143 261.338 240.143 C 261.307 240.428 261.286 240.714 261.253 241.006 C 260.79 242.781 259.876 244.123 258.886 245.648 C 257.444 247.911 256.164 250.168 255.012 252.605 C 254.744 252.605 254.465 252.605 254.174 252.605 C 254.119 252.856 254.066 253.109 254.013 253.367 C 253.754 254.328 253.41 255.025 252.903 255.878 C 252.732 256.172 252.56 256.463 252.387 256.767 C 252.205 257.077 252.022 257.388 251.828 257.707 C 251.441 258.364 251.064 259.021 250.677 259.679 C 250.482 260.006 250.29 260.335 250.095 260.67 C 249.289 262.054 248.514 263.452 247.751 264.852 C 246.653 266.817 245.501 268.707 244.243 270.569 C 243.694 271.428 243.199 272.291 242.716 273.196 C 241.123 276.156 239.413 279.046 237.713 281.947 C 236.142 284.627 234.582 287.306 233.119 290.044 C 232.667 290.882 232.194 291.712 231.731 292.543 C 231.334 293.259 230.934 293.98 230.569 294.717 C 230.3 294.717 230.02 294.717 229.73 294.717 C 229.686 295.029 229.643 295.339 229.6 295.658 C 229.278 296.987 228.826 297.904 228.041 299.015 C 227.772 299.015 227.491 299.015 227.202 299.015 C 227.137 299.259 227.072 299.504 226.997 299.756 C 226.276 302.188 225.33 303.874 223.834 305.892 C 223.694 306.317 223.554 306.743 223.403 307.18 C 223.135 307.18 222.855 307.18 222.565 307.18 C 222.457 307.485 222.339 307.791 222.22 308.105 C 221.704 309.365 221.112 310.526 220.456 311.719 C 219.724 313.06 219.014 314.399 218.347 315.776 C 218.067 315.776 217.798 315.776 217.507 315.776 C 217.465 316.086 217.411 316.399 217.367 316.719 C 217.077 317.978 216.647 318.879 216.012 319.991 C 215.819 320.332 215.625 320.671 215.421 321.021 C 215.281 321.275 215.13 321.529 214.98 321.791 C 214.7 321.791 214.42 321.791 214.14 321.791 C 214.022 322.086 213.915 322.38 213.795 322.683 C 212.419 326.098 210.752 329.46 208.772 332.559 C 208.116 333.592 207.492 334.646 206.868 335.704 C 206.652 336.061 206.448 336.42 206.232 336.789 C 205.9 337.365 205.576 337.952 205.286 338.552 C 205.007 338.552 204.726 338.552 204.447 338.552 C 204.404 338.847 204.371 339.144 204.339 339.447 C 203.941 340.998 203.22 342.208 202.391 343.546 C 202.048 344.114 201.703 344.685 201.36 345.253 C 201.176 345.556 200.993 345.859 200.81 346.172 C 199.767 347.927 198.744 349.696 197.723 351.47 C 197.529 351.812 197.325 352.155 197.12 352.507 C 196.936 352.835 196.744 353.162 196.56 353.5 C 196.389 353.787 196.227 354.075 196.055 354.37 C 195.496 355.509 195.14 356.679 194.753 357.888 C 200.584 357.899 206.426 357.907 212.269 357.912 C 214.98 357.913 217.691 357.917 220.402 357.921 C 223.027 357.926 225.652 357.929 228.266 357.93 C 229.267 357.93 230.257 357.932 231.258 357.934 C 239.218 358.652 239.218 358.652 246.48 356.85 C 247.105 356.042 247.611 355.212 248.106 354.311 C 248.418 353.76 248.418 353.76 248.73 353.197 C 248.945 352.804 249.16 352.412 249.375 352.007 C 249.601 351.601 249.827 351.196 250.063 350.778 C 250.731 349.568 251.397 348.358 252.064 347.145 C 252.333 346.661 252.333 346.661 252.603 346.167 C 252.925 345.585 253.237 345.005 253.561 344.424 C 256.411 339.251 259.284 334.097 262.49 329.139 C 263.082 328.211 263.082 328.211 263.448 326.948 C 263.727 326.948 263.997 326.948 264.287 326.948 C 264.384 326.673 264.48 326.397 264.577 326.115 C 265.91 322.939 267.772 319.997 269.483 317.021 C 270.074 315.984 270.645 314.944 271.215 313.896 C 273.474 309.725 275.81 305.622 278.273 301.575 C 278.918 300.502 279.531 299.422 280.123 298.316 C 280.887 296.877 281.727 295.502 282.599 294.127 C 283.825 292.175 284.932 290.181 286.009 288.135 C 286.793 286.663 287.644 285.234 288.494 283.803 C 289.214 282.578 289.924 281.344 290.624 280.108 C 291.549 278.497 292.474 276.893 293.422 275.3 C 294.368 273.685 295.283 272.054 296.165 270.403 C 296.842 269.176 297.542 267.968 298.241 266.757 C 299.058 265.347 299.823 263.956 300.478 262.462 C 301.619 260.09 303.225 257.786 305.168 256.043 C 306.554 255.908 306.554 255.908 307.697 256.043 C 307.697 255.759 307.697 255.475 307.697 255.182 C 310.925 254.618 313.312 254.63 316.125 256.472 C 316.863 257.123 316.863 257.123 317.391 257.762 C 317.391 258.044 317.391 258.329 317.391 258.621 C 317.808 258.762 318.225 258.904 318.654 259.05 C 320.16 261.721 320.345 264.352 319.707 267.355 C 318.98 269.781 317.802 271.914 316.547 274.091 C 316.408 274.375 316.269 274.659 316.125 274.95 C 315.847 274.95 315.57 274.95 315.284 274.95 C 315.231 275.19 315.179 275.43 315.125 275.675 C 314.836 276.764 314.443 277.778 314.018 278.819 C 313.74 278.819 313.463 278.819 313.176 278.819 C 313.127 279.055 313.081 279.292 313.032 279.536 C 312.706 280.71 312.219 281.709 311.674 282.793 C 311.483 283.177 311.291 283.56 311.094 283.955 C 310.946 284.245 310.798 284.536 310.647 284.834 C 310.369 284.834 310.09 284.834 309.805 284.834 C 309.683 285.144 309.561 285.455 309.435 285.774 C 308.777 287.452 308.777 287.452 308.118 289.132 C 307.84 289.132 307.563 289.132 307.274 289.132 C 307.208 289.375 307.142 289.62 307.073 289.872 C 306.464 291.929 305.763 293.487 304.481 295.184 C 303.808 296.144 303.284 297.139 302.744 298.182 C 301.737 300.115 300.629 301.943 299.456 303.769 C 298.155 305.79 297.015 307.825 295.993 310.008 C 295.196 311.602 294.228 313.076 293.271 314.576 C 292.302 316.128 291.463 317.732 290.613 319.348 C 289.182 322.028 287.591 324.604 285.965 327.163 C 284.825 328.983 283.835 330.829 282.92 332.776 C 282.114 334.45 281.21 336.069 280.307 337.691 C 280.027 337.691 279.746 337.691 279.457 337.691 C 279.37 338.047 279.274 338.401 279.166 338.766 C 278.616 340.258 277.95 341.412 277.1 342.74 C 275.97 344.585 274.991 346.516 273.981 348.435 C 273.711 348.948 273.432 349.464 273.162 349.978 C 272.453 351.326 271.743 352.673 271.033 354.021 C 270.752 354.021 270.472 354.021 270.182 354.021 C 270.139 354.338 270.085 354.656 270.042 354.981 C 269.773 356.152 269.419 356.954 268.827 357.986 C 268.643 358.321 268.451 358.655 268.256 359 C 268.063 359.342 267.859 359.685 267.654 360.037 C 267.288 360.703 266.911 361.368 266.546 362.035 C 260.467 372.805 260.467 372.805 257.971 375.079 C 257.702 375.389 257.433 375.698 257.154 376.017 C 255.217 377.748 252.903 377.781 250.44 377.769 C 250.117 377.77 249.794 377.772 249.451 377.773 C 248.363 377.777 247.277 377.776 246.191 377.774 C 245.416 377.776 244.63 377.778 243.845 377.78 C 241.737 377.787 239.617 377.787 237.497 377.786 C 235.723 377.786 233.958 377.788 232.183 377.791 C 228.019 377.795 223.845 377.795 219.67 377.793 C 215.367 377.789 211.064 377.795 206.76 377.805 C 203.059 377.811 199.358 377.815 195.667 377.812 C 193.451 377.811 191.246 377.814 189.041 377.819 C 186.963 377.825 184.888 377.824 182.811 377.818 C 182.058 377.817 181.294 377.818 180.53 377.822 C 179.487 377.826 178.454 377.824 177.41 377.817 C 177.109 377.821 176.808 377.824 176.496 377.827 C 173.591 377.795 171.579 376.615 169.46 374.649 C 169.46 374.365 169.46 374.08 169.46 373.79 C 169.04 373.646 168.632 373.505 168.201 373.359 C 166.867 370.992 166.543 368.758 166.932 366.054 C 167.394 364.799 167.943 363.775 168.621 362.616 C 168.9 362.616 169.18 362.616 169.46 362.616 C 169.535 362.146 169.535 362.146 169.6 361.665 C 169.901 360.395 170.331 359.577 171.02 358.48 C 171.945 356.961 172.816 355.435 173.656 353.86 C 175.581 350.211 177.668 346.648 179.766 343.095 C 180.379 342.056 180.993 341.019 181.606 339.979 C 182.478 338.494 183.349 337.01 184.23 335.529 C 184.436 335.171 184.651 334.814 184.866 334.448 C 185.296 333.725 185.716 333.003 186.146 332.283 C 187.341 330.26 188.492 328.222 189.611 326.155 C 190.418 324.674 191.267 323.22 192.117 321.764 C 193.537 319.319 194.926 316.86 196.281 314.379 C 197.658 311.843 199.132 309.368 200.638 306.903 C 201.607 305.271 202.531 303.612 203.446 301.943 C 205.544 298.1 207.772 294.354 210.094 290.645 C 210.924 289.304 211.687 287.935 212.451 286.553 C 213.742 284.312 215.066 282.101 216.453 279.919 C 217.68 277.975 218.778 275.992 219.843 273.956 C 220.446 272.826 221.09 271.727 221.747 270.627 C 222.995 268.547 224.061 266.399 225.092 264.208 C 225.372 264.208 225.652 264.208 225.932 264.208 C 226.06 263.817 226.18 263.427 226.309 263.025 C 226.685 261.92 227.083 260.935 227.622 259.909 C 227.901 259.909 228.181 259.909 228.461 259.909 C 228.514 259.668 228.557 259.427 228.612 259.178 C 229.794 254.953 232.882 251.02 235.174 247.331 C 235.572 246.682 235.958 246.026 236.346 245.37 C 236.895 244.44 236.895 244.44 237.606 243.473 C 238.617 241.322 238.337 239.19 237.82 236.92 C 237.648 236.564 237.486 236.21 237.314 235.845 C 236.895 235.704 236.485 235.56 236.055 235.415 C 235.593 234.666 235.593 234.666 235.185 233.75 C 234.678 232.639 234.195 231.716 233.528 230.688 C 233.528 230.263 233.528 229.837 233.528 229.398 C 233.247 229.398 232.968 229.398 232.678 229.398 C 232.559 229.169 232.43 228.94 232.312 228.705 C 230.665 225.666 229.02 222.611 227.04 219.784 C 226.362 218.656 226.362 218.656 226.362 216.937 C 225.942 216.794 225.522 216.653 225.092 216.507 C 224.576 215.703 224.576 215.703 224.039 214.599 C 222.694 211.955 221.177 209.43 219.637 206.896 C 218.466 204.974 217.367 203.031 216.303 201.049 C 215.506 199.603 214.635 198.21 213.775 196.81 C 213.29 195.88 213.29 195.88 213.29 194.591 C 213.011 194.591 212.742 194.591 212.451 194.591 C 212.312 193.881 212.172 193.172 212.032 192.443 C 211.752 192.443 211.472 192.443 211.182 192.443 C 210.977 191.991 210.773 191.539 210.557 191.076 C 209.245 188.401 207.653 185.896 206.103 183.364 C 205.501 182.378 204.899 181.392 204.296 180.407 C 203.898 179.757 203.898 179.757 203.49 179.095 C 202.769 177.839 202.134 176.557 201.488 175.253 C 201.187 174.801 200.886 174.349 200.573 173.882 C 199.809 172.675 199.809 172.675 199.809 171.385 C 199.53 171.385 199.25 171.385 198.96 171.385 C 198.744 170.963 198.744 170.963 198.518 170.532 C 197.12 167.895 195.667 165.295 194.162 162.714 C 192.225 159.244 192.225 159.244 192.225 158.063 C 191.944 158.063 191.665 158.063 191.375 158.063 C 191.256 157.84 191.138 157.615 191.02 157.384 C 190.02 155.505 188.965 153.682 187.824 151.886 C 186.62 149.975 185.522 148.029 184.479 146.024 C 183.962 145.053 183.424 144.093 182.886 143.136 C 182.725 142.863 182.574 142.591 182.412 142.31 C 182.111 141.772 181.8 141.236 181.488 140.7 C 180.423 138.819 180.423 138.819 180.423 137.867 C 180.142 137.867 179.863 137.867 179.573 137.867 C 179.238 137.25 178.895 136.632 178.55 136.013 C 178.357 135.669 178.174 135.324 177.969 134.971 C 177.475 133.998 177.475 133.998 177.044 132.709 C 176.357 132.709 175.657 132.709 174.946 132.709 C 174.871 133.072 174.871 133.072 174.806 133.443 C 174.473 134.584 173.978 135.433 173.365 136.443 C 171.644 139.285 170.052 142.171 168.621 145.172 C 168.34 145.172 168.061 145.172 167.782 145.172 C 167.749 145.461 167.706 145.752 167.673 146.051 C 167.265 147.695 166.458 149.009 165.586 150.435 C 165.339 150.866 165.339 150.866 165.071 151.302 C 163.972 153.133 162.821 154.924 161.638 156.7 C 161.079 157.561 160.594 158.424 160.11 159.327 C 158.829 161.704 157.463 164.031 156.097 166.36 C 153.472 170.865 150.879 175.387 148.393 179.98 C 148.114 179.98 147.835 179.98 147.554 179.98 C 147.512 180.419 147.512 180.419 147.468 180.866 C 147.082 182.308 146.458 183.137 145.586 184.314 C 144.662 185.652 144.015 187.098 143.338 188.575 C 143.058 188.575 142.778 188.575 142.487 188.575 C 142.423 189.051 142.423 189.051 142.348 189.537 C 142.068 190.738 141.713 191.484 141.068 192.522 C 140.841 192.891 140.626 193.259 140.39 193.637 C 140.11 194.094 139.829 194.549 139.539 195.021 C 138.959 195.991 138.378 196.965 137.786 197.937 C 137.389 198.612 136.979 199.286 136.57 199.959 C 135.021 202.548 133.537 205.176 132.084 207.832 C 131.912 208.153 131.729 208.475 131.556 208.808 C 131.256 209.363 130.966 209.923 130.684 210.491 C 130.416 210.491 130.137 210.491 129.845 210.491 C 129.738 210.782 129.642 211.076 129.524 211.378 C 128.91 212.868 128.146 214.25 127.34 215.649 C 127.199 215.907 127.048 216.166 126.898 216.433 C 125.564 218.796 124.176 221.122 122.767 223.437 C 121.712 225.172 120.7 226.923 119.754 228.727 C 118.647 230.861 117.377 232.87 116.086 234.891 C 114.472 237.416 113.052 240.029 111.728 242.72 C 111.449 242.72 111.168 242.72 110.889 242.72 C 110.716 243.282 110.716 243.282 110.556 243.855 C 110.039 245.315 109.405 246.462 108.587 247.769 C 108.296 248.256 107.994 248.743 107.694 249.228 C 107.533 249.491 107.372 249.753 107.199 250.023 C 106.187 251.655 105.209 253.299 104.219 254.941 C 104.025 255.266 103.822 255.591 103.627 255.927 C 102.583 257.649 101.626 259.374 100.765 261.199 C 100.486 261.199 100.217 261.199 99.926 261.199 C 99.883 261.438 99.829 261.676 99.797 261.922 C 99.441 263.124 98.893 264.034 98.237 265.093 C 97.527 266.253 96.979 267.203 96.549 268.504 C 96.278 268.504 95.999 268.504 95.708 268.504 C 95.59 268.805 95.483 269.107 95.364 269.417 C 94.837 270.724 94.235 271.973 93.611 273.233 C 93.331 273.233 93.051 273.233 92.761 273.233 C 92.717 273.537 92.675 273.841 92.642 274.155 C 92.287 275.596 91.706 276.55 90.921 277.798 C 89.813 279.557 88.759 281.332 87.736 283.147 C 87.532 283.52 87.328 283.891 87.113 284.275 C 86.704 285.018 86.294 285.766 85.886 286.511 C 85.693 286.852 85.499 287.192 85.304 287.542 C 85.058 288.001 85.058 288.001 84.8 288.471 C 84.638 288.688 84.487 288.907 84.337 289.132 C 84.057 289.132 83.778 289.132 83.486 289.132 C 83.433 289.45 83.391 289.77 83.336 290.098 C 83.089 291.194 82.755 292.023 82.228 293 C 81.949 293 81.668 293 81.378 293 C 81.282 293.274 81.195 293.549 81.088 293.832 C 79.517 297.565 77.28 301.02 75.268 304.511 C 74.407 305.994 73.568 307.486 72.717 308.98 C 71.642 310.857 70.512 312.672 69.34 314.485 C 67.887 316.758 66.66 319.078 65.509 321.529 C 64.895 322.748 64.197 323.799 63.379 324.881 C 62.809 325.707 62.335 326.549 61.862 327.44 C 60.775 329.441 59.667 331.42 58.537 333.394 C 58.247 333.921 58.247 333.921 57.935 334.461 C 56.612 336.795 55.278 339.124 53.933 341.452 C 53.76 341.752 53.599 342.05 53.417 342.358 C 52.578 343.8 51.737 345.235 50.877 346.659 C 50.717 346.931 50.555 347.203 50.382 347.483 C 49.941 348.21 49.5 348.935 49.059 349.661 C 48.112 351.312 47.337 353.042 46.553 354.777 C 46.348 355.226 46.348 355.226 46.133 355.684 C 45.81 356.419 45.476 357.154 45.133 357.888 C 51.577 357.909 58.01 357.925 64.454 357.933 C 67.446 357.937 70.436 357.945 73.428 357.953 C 76.31 357.964 79.205 357.968 82.088 357.97 C 83.185 357.972 84.283 357.974 85.391 357.979 C 86.93 357.986 88.478 357.987 90.017 357.986 C 90.469 357.989 90.932 357.993 91.395 357.996 C 93.546 357.989 95.408 357.969 97.399 357.029 C 98.054 356.267 98.054 356.267 98.452 355.311 C 98.613 354.962 98.797 354.615 98.969 354.256 C 99.14 353.895 99.324 353.535 99.507 353.162 C 99.894 352.477 100.291 351.796 100.69 351.12 C 101.013 350.584 101.013 350.584 101.335 350.036 C 102.11 348.731 102.896 347.427 103.692 346.126 C 105.64 342.899 107.543 339.645 109.329 336.321 C 111.664 332.019 114.16 327.814 116.645 323.608 C 118.409 320.633 120.142 317.661 121.734 314.594 C 122.412 313.342 123.154 312.145 123.918 310.941 C 124.423 310.124 124.423 310.124 124.973 308.952 C 126.123 306.611 127.511 304.407 128.845 302.171 C 129.738 300.671 130.61 299.189 131.374 297.619 C 131.956 296.437 131.956 296.437 132.718 295.282 C 133.526 294.033 134.215 292.788 134.903 291.467 C 135.774 289.824 136.688 288.425 137.851 286.984 C 138.13 286.268 138.42 285.55 138.7 284.834 C 139.077 284.155 139.453 283.483 139.862 282.82 C 140.078 282.446 140.303 282.073 140.53 281.688 C 140.766 281.308 140.992 280.929 141.229 280.538 C 142.606 278.229 143.94 275.914 145.209 273.547 C 145.747 272.585 146.285 271.636 146.845 270.686 C 149.276 266.51 149.276 266.51 151.472 262.192 C 152.376 260.303 153.3 258.853 154.709 257.332 C 155.011 256.973 155.011 256.973 155.323 256.606 C 157.678 254.58 160.035 254.539 162.982 254.594 C 164.865 254.804 165.866 255.316 167.362 256.472 C 167.362 256.756 167.362 257.041 167.362 257.332 C 167.771 257.473 168.19 257.615 168.621 257.762 C 168.621 258.044 168.621 258.329 168.621 258.621 C 169.04 258.762 169.449 258.904 169.879 259.05 C 171.289 261.655 171.02 264.777 170.729 267.645 C 170.191 269.329 169.492 270.841 168.621 272.372 C 168.34 272.372 168.061 272.372 167.782 272.372 C 167.631 272.891 167.631 272.891 167.491 273.42 C 166.792 275.35 165.844 277.042 164.833 278.819 C 164.575 279.27 164.328 279.719 164.07 280.182 C 161.992 283.858 161.992 283.858 161.036 284.834 C 160.734 285.57 160.422 286.308 160.121 287.048 C 159.583 288.261 158.809 289.314 158.088 290.421 C 157.357 291.839 156.657 293.275 155.979 294.717 C 155.699 294.717 155.419 294.717 155.129 294.717 C 155.043 294.993 154.947 295.268 154.849 295.55 C 154.086 297.355 153.138 299.027 152.181 300.734 C 151.686 301.643 151.18 302.552 150.674 303.46 C 149.922 304.845 149.158 306.228 148.393 307.61 C 148.114 307.61 147.835 307.61 147.554 307.61 C 147.501 308.046 147.501 308.046 147.447 308.49 C 147.027 310.137 146.221 311.448 145.339 312.874 C 144.994 313.445 144.651 314.017 144.305 314.588 C 144.134 314.864 143.972 315.139 143.8 315.423 C 142.896 316.944 142.057 318.506 141.229 320.073 C 140.95 320.073 140.669 320.073 140.379 320.073 C 140.336 320.391 140.281 320.711 140.228 321.039 C 139.98 322.136 139.648 322.963 139.12 323.94 C 138.84 323.94 138.56 323.94 138.281 323.94 C 138.152 324.33 138.033 324.72 137.904 325.122 C 137.528 326.228 137.129 327.212 136.591 328.238 C 136.312 328.238 136.033 328.238 135.752 328.238 C 135.687 328.572 135.687 328.572 135.624 328.914 C 135.225 330.311 134.602 331.566 133.956 332.857 C 133.826 333.126 133.687 333.394 133.547 333.672 C 132.708 335.365 131.805 336.999 130.782 338.593 C 130.201 339.524 129.642 340.472 129.083 341.425 C 128.093 343.119 127.081 344.798 126.06 346.473 C 124.768 348.597 123.573 350.749 122.412 352.948 C 121.745 354.193 121.024 355.389 120.27 356.579 C 119.023 358.624 117.894 360.745 116.742 362.85 C 115.247 365.582 113.73 368.299 112.169 370.996 C 112.008 371.276 111.857 371.556 111.686 371.846 C 111.309 372.509 110.889 373.151 110.459 373.79 C 110.18 373.79 109.91 373.79 109.62 373.79 C 109.534 374.036 109.458 374.284 109.383 374.54 C 108.351 376.188 106.672 376.795 104.983 377.657 C 103.917 377.699 102.863 377.715 101.809 377.714 C 101.303 377.715 101.303 377.715 100.798 377.717 C 99.679 377.719 98.559 377.719 97.452 377.718 C 96.644 377.72 95.848 377.723 95.053 377.724 C 92.879 377.727 90.706 377.728 88.533 377.728 C 86.714 377.728 84.896 377.73 83.089 377.731 C 78.818 377.735 74.536 377.736 70.265 377.736 C 65.843 377.736 61.432 377.74 57.011 377.747 C 53.223 377.753 49.436 377.755 45.649 377.755 C 43.39 377.754 41.13 377.756 38.861 377.76 C 36.73 377.764 34.599 377.764 32.469 377.761 C 31.695 377.76 30.909 377.762 30.124 377.764 C 29.058 377.767 27.994 377.765 26.928 377.762 C 26.616 377.764 26.305 377.765 25.993 377.77 C 24.304 377.757 23.518 377.591 21.958 376.797 C 21.958 370.132 21.958 363.467 21.958 356.599 C 22.237 356.599 22.518 356.599 22.797 356.599 C 22.98 356.234 22.98 356.234 23.152 355.863 C 23.658 354.849 24.217 353.889 24.798 352.92 C 25.96 350.97 27.036 348.984 28.09 346.977 C 28.79 345.687 29.554 344.447 30.35 343.215 C 30.844 342.398 30.844 342.398 31.222 341.367 C 31.641 340.275 32.158 339.338 32.759 338.336 C 33.093 337.772 33.093 337.772 33.438 337.195 C 33.685 336.791 33.922 336.388 34.179 335.973 C 34.428 335.561 34.675 335.149 34.932 334.724 C 35.987 332.967 37.052 331.211 38.106 329.457 C 40.151 326.093 42.173 322.738 44.003 319.247 C 45.208 317.02 46.509 314.849 47.8 312.669 C 49.404 309.953 50.996 307.227 52.556 304.486 C 53.384 303.057 54.223 301.641 55.084 300.238 C 55.879 298.951 56.612 297.649 57.311 296.303 C 58.42 294.203 59.635 292.203 60.904 290.201 C 61.732 288.866 62.497 287.504 63.261 286.123 C 63.864 285.083 64.476 284.043 65.101 283.005 C 65.832 281.751 66.542 280.487 67.263 279.22 C 68.328 277.35 69.457 275.543 70.641 273.751 C 72.352 271.124 73.879 268.379 75.364 265.618 C 75.945 264.56 76.559 263.525 77.171 262.488 C 77.936 261.185 78.689 259.877 79.409 258.54 C 81.787 254.129 84.423 249.865 87.059 245.609 C 88.296 243.589 89.436 241.527 90.523 239.421 C 91.168 238.252 91.911 237.204 92.697 236.135 C 93.407 235.09 93.901 233.962 94.439 232.822 C 94.858 231.984 95.343 231.259 95.891 230.499 C 97.129 228.792 98.097 226.966 99.087 225.102 C 100.938 221.626 102.799 218.233 105.091 215.025 C 106.306 213.211 107.339 211.286 108.394 209.369 C 109.458 207.427 110.588 205.521 111.728 203.614 C 112.147 202.899 112.567 202.183 112.986 201.466 C 113.192 201.112 113.407 200.758 113.622 200.394 C 114.041 199.672 114.461 198.951 114.88 198.228 C 115.914 196.462 116.969 194.729 118.098 193.033 C 119.044 191.604 119.819 190.166 120.561 188.615 C 121.777 186.137 123.262 183.801 124.789 181.51 C 125.963 179.741 126.964 177.904 127.942 176.02 C 128.782 174.456 129.686 172.941 130.61 171.426 C 131.169 170.493 131.169 170.493 131.536 169.237 C 131.815 169.237 132.084 169.237 132.375 169.237 C 132.492 168.935 132.6 168.633 132.718 168.323 C 134.289 164.455 136.548 160.971 138.7 157.419 C 141.38 152.987 144.026 148.555 146.285 143.882 C 146.564 143.882 146.845 143.882 147.124 143.882 C 147.178 143.567 147.222 143.252 147.275 142.928 C 147.554 141.694 147.953 140.897 148.599 139.826 C 148.943 139.269 148.943 139.269 149.286 138.701 C 150.352 137.003 151.428 135.312 152.493 133.62 C 153.999 131.245 155.366 128.828 156.581 126.29 C 157.195 125.057 157.851 123.861 158.528 122.664 C 158.851 122.101 158.851 122.101 159.175 121.526 C 159.476 121.105 159.476 121.105 159.766 120.678 C 160.046 120.678 160.325 120.678 160.616 120.678 C 160.745 120.158 160.745 120.158 160.874 119.628 C 161.381 118.297 161.886 117.401 162.67 116.245 C 163.941 114.379 164.844 112.466 165.672 110.363 C 165.952 110.363 166.222 110.363 166.512 110.363 C 166.652 109.654 166.792 108.944 166.932 108.215 C 167.211 108.215 167.491 108.215 167.782 108.215 C 167.824 107.958 167.867 107.7 167.91 107.435 C 168.244 106.361 168.61 105.904 169.46 105.205 C 169.739 105.205 170.019 105.205 170.309 105.205 C 170.45 104.781 170.589 104.356 170.729 103.917 C 172.268 102.724 174.129 102.915 175.969 102.923 Z" style="stroke-width: 1; fill: rgb(170, 73, 199);"/></svg>