<?xml version="1.0" encoding="UTF-8"?>
<svg version="1.1" xmlns="http://www.w3.org/2000/svg" width="346" height="212">
<path d="M0 0 C4.03910743 0.84148071 5.2723631 2.55434209 8 5.625 C9.50626237 7.9608392 10.89721685 10.26730484 12.25 12.6875 C13.11740762 14.20188886 13.9874012 15.7147982 14.859375 17.2265625 C15.59124023 18.4954834 15.59124023 18.4954834 16.33789062 19.79003906 C19.28289659 24.81316029 22.34104699 29.76781413 25.38110352 34.73373413 C31.07036385 44.032472 36.68316024 53.3525885 41.86914062 62.94506836 C45.75698175 71.41827164 45.75698175 71.41827164 52 77.625 C53.125 79.6875 53.125 79.6875 54 81.625 C55.65 81.625 57.3 81.625 59 81.625 C59.47566406 80.76003906 59.95132813 79.89507812 60.44140625 79.00390625 C65.81922767 69.30113423 71.46823105 59.77508642 77.1940918 50.27416992 C81.45564441 43.2028141 85.68252722 36.11251949 89.875 29 C90.93221783 27.20959182 91.98950723 25.41922589 93.046875 23.62890625 C94.49478604 21.17675341 95.94176005 18.72408595 97.38476562 16.26904297 C98.62741609 14.15607694 99.87548639 12.0464123 101.125 9.9375 C101.47933105 9.33147949 101.83366211 8.72545898 102.19873047 8.10107422 C105.47018916 2.60162554 105.47018916 2.60162554 108 0.625 C111.3125 -0 111.3125 -0 115 0.625 C120.41844146 5.18794592 123.75903547 11.99741927 127.1875 18.0625 C128.41651261 20.20396136 129.64706616 22.34453885 130.87890625 24.484375 C131.20377014 25.05024826 131.52863403 25.61612152 131.86334229 26.19914246 C136.03486892 33.4522734 140.33824128 40.62713653 144.625 47.8125 C150.65366789 57.92330906 156.62167515 68.05999981 162.34814453 78.34643555 C164.63145847 82.41083694 166.99949833 86.03369158 170 89.625 C171 91.625 172 93.625 173 95.625 C174.01453129 97.24330974 175.04527155 98.85149629 176.0859375 100.453125 C179.95968753 106.50134071 183.60701738 112.66975676 187.22052002 118.87487793 C188.34213417 120.8008871 189.46639852 122.72532827 190.59130859 124.64941406 C192.07402797 127.18597099 193.55586004 129.72304155 195.03662109 132.26074219 C202.75757388 145.49062647 210.59307467 158.64826893 218.484375 171.77734375 C219.36391846 173.25267578 219.36391846 173.25267578 220.26123047 174.7578125 C221.40291653 176.64042428 222.57321142 178.50603841 223.77392578 180.3515625 C226.95452972 185.31146625 228.76329072 188.66677876 228.375 194.75 C228.29378906 196.42449219 228.29378906 196.42449219 228.2109375 198.1328125 C228.14132812 198.95523438 228.07171875 199.77765625 228 200.625 C224.57482916 202.15903631 221.89021667 202.87633897 218.14245605 202.88569641 C216.71678566 202.89632362 216.71678566 202.89632362 215.26231384 202.90716553 C214.23151199 202.90468811 213.20071014 202.90221069 212.13867188 202.8996582 C211.04381973 202.90476913 209.94896759 202.90988007 208.82093811 202.91514587 C205.20348641 202.92904107 201.58622521 202.92808532 197.96875 202.92578125 C195.45438567 202.9296678 192.940022 202.93400238 190.42565918 202.93876648 C185.15664041 202.94622823 179.88767096 202.94607572 174.61865234 202.94067383 C168.5331745 202.93463075 162.44792766 202.94695616 156.36248922 202.9682439 C150.50039218 202.98799412 144.6383856 202.99103261 138.77626038 202.98750877 C136.28515581 202.98802261 133.7940476 202.99327197 131.30296326 203.00332069 C127.82223634 203.0156397 124.34204627 203.00892053 120.86132812 202.99731445 C119.83052628 203.00495819 118.79972443 203.01260193 117.73768616 203.02047729 C108.97080039 202.95577755 108.97080039 202.95577755 105 199.625 C103.4375 197.5 103.4375 197.5 103 194.625 C105.14295158 188.36341541 108.57733957 182.50083923 111.8125 176.75 C112.24900879 175.97205078 112.68551758 175.19410156 113.13525391 174.39257812 C123.43665666 156.15799815 123.43665666 156.15799815 128 154.625 C131.46108684 155.45566084 133.47013105 156.09513105 136 158.625 C136.64838295 165.06054562 135.38478049 168.83629436 132.125 174.3125 C129.81830678 178.34309999 127.67167386 182.28227195 126 186.625 C126.94103073 186.61025131 127.88206146 186.59550262 128.85160828 186.58030701 C137.72380944 186.44195378 146.59607947 186.30924073 155.46844769 186.1820364 C160.02971344 186.11645997 164.59093188 186.04890301 169.15209961 185.97680664 C173.55460069 185.90729134 177.95715 185.84299576 182.35978127 185.78230476 C184.03870214 185.75824583 185.71759725 185.73231236 187.39645958 185.70446587 C189.74953561 185.66575803 192.1026154 185.633741 194.45581055 185.60327148 C195.49483017 185.58385246 195.49483017 185.58385246 196.55484009 185.56404114 C200.17543165 185.5246087 203.48026969 185.75978161 207 186.625 C205.59102338 181.09747634 204.07739136 176.70239136 200 172.625 C198.92089704 170.81344891 197.88368169 168.9766862 196.875 167.125 C196.06675781 165.65546875 196.06675781 165.65546875 195.2421875 164.15625 C194 161.625 194 161.625 194 159.625 C193.34 159.295 192.68 158.965 192 158.625 C190.72932197 156.5608939 189.53897348 154.49813483 188.375 152.375 C183.41945215 143.52004193 178.11998816 134.90703079 172.625 126.375 C169.29743124 121.16957076 166.16704522 115.8604185 163.05004883 110.52758789 C159.21055878 103.96260068 155.30223316 97.44036009 151.37426758 90.92797852 C146.35706981 82.59536806 141.48024154 74.18209822 136.60546875 65.765625 C130.84438572 55.83037394 125.08380756 45.9155885 118.84448242 36.27050781 C116 31.83004534 116 31.83004534 116 29.625 C115.34 29.625 114.68 29.625 114 29.625 C113.71125 28.985625 113.4225 28.34625 113.125 27.6875 C112.17176549 25.47293921 112.17176549 25.47293921 110 24.625 C109.67 26.275 109.34 27.925 109 29.625 C108.34 29.625 107.68 29.625 107 29.625 C106.78085938 30.264375 106.56171875 30.90375 106.3359375 31.5625 C104.47749112 35.82279813 102.05088825 39.66681019 99.625 43.625 C95.31035441 50.7342405 91.09920012 57.88944459 87 65.125 C78.66111234 79.80437871 70.00251338 94.27123327 60.83203125 108.44775391 C58.50127259 112.08281655 56.39261815 115.50448866 55 119.625 C54.34 119.625 53.68 119.625 53 119.625 C52.64615234 120.61886719 52.64615234 120.61886719 52.28515625 121.6328125 C50.64223854 125.45796437 48.57247637 128.93187427 46.4375 132.5 C45.98987305 133.25466553 45.54224609 134.00933105 45.08105469 134.78686523 C42.66599662 138.85278191 40.23191754 142.90717635 37.79125977 146.95776367 C36.31638628 149.40781729 34.84759731 151.86147457 33.38085938 154.31640625 C32.34267968 156.05208998 31.30186927 157.78620061 30.25976562 159.51953125 C28.33002147 162.73643261 26.41409937 165.96126954 24.5 169.1875 C23.87577148 170.22334229 23.25154297 171.25918457 22.60839844 172.32641602 C22.02606445 173.31311279 21.44373047 174.29980957 20.84375 175.31640625 C20.31974609 176.19498291 19.79574219 177.07355957 19.25585938 177.97875977 C17.64559439 181.05934013 17.64559439 181.05934013 17 186.625 C28.55 186.625 40.1 186.625 52 186.625 C52 185.965 52 185.305 52 184.625 C52.66 184.625 53.32 184.625 54 184.625 C54.2475 183.92375 54.495 183.2225 54.75 182.5 C56.16813146 179.23829764 58.0133615 176.57657719 60 173.625 C60.76536832 172.27800641 61.51688699 170.9230917 62.2578125 169.5625 C65.08491625 164.43438595 68.06576752 159.40531069 71.0625 154.375 C76.09964897 145.89590765 81.04073689 137.3684832 85.86547852 128.76660156 C93.67647825 114.94852175 93.67647825 114.94852175 97 111.625 C100.82011276 111.264612 103.15684085 111.08451337 106.4375 113.1875 C108.64790803 116.63573652 108.4431039 118.54763108 108 122.625 C106.55667841 125.86448853 104.67174321 128.77537588 102.75 131.75 C101.63978005 133.53121565 100.53177387 135.31381269 99.42578125 137.09765625 C98.85553223 138.01047363 98.2852832 138.92329102 97.69775391 139.86376953 C95.00420829 144.2445577 92.46937617 148.71193607 89.9375 153.1875 C88.94439014 154.9364136 87.95090155 156.68511219 86.95703125 158.43359375 C86.46928223 159.29194824 85.9815332 160.15030273 85.47900391 161.03466797 C82.59458231 166.08645291 79.66112678 171.10989175 76.7355957 176.13793945 C74.29357095 180.3479094 71.91809508 184.58129646 69.625 188.875 C63.24232588 200.66827431 63.24232588 200.66827431 58 202.625 C55.21664429 202.87223816 55.21664429 202.87223816 51.97802734 202.86791992 C50.76351898 202.87099655 49.54901062 202.87407318 48.29769897 202.87724304 C46.33662704 202.86646477 46.33662704 202.86646477 44.3359375 202.85546875 C42.97881107 202.85427612 41.62168381 202.85382396 40.26455688 202.8540802 C37.42501636 202.85251828 34.58560244 202.84424944 31.74609375 202.83081055 C28.10311174 202.8137887 24.46026833 202.8099973 20.81725121 202.81075573 C18.01718824 202.81048413 15.21715568 202.80500507 12.41710281 202.79775429 C10.41954162 202.79301878 8.42197404 202.79129161 6.42440796 202.78959656 C5.21620392 202.78321671 4.00799988 202.77683685 2.76318359 202.77026367 C1.16245499 202.76454597 1.16245499 202.76454597 -0.47061157 202.75871277 C-3 202.625 -3 202.625 -5 201.625 C-5 200.965 -5 200.305 -5 199.625 C-5.66 199.625 -6.32 199.625 -7 199.625 C-8.44064512 194.82284959 -7.62550883 192.3345607 -5.33740234 187.98486328 C-2.69792289 183.32746855 0.18796747 178.82713659 3.0625 174.3125 C8.31031444 166.00043569 13.39950247 157.62899567 18.27636719 149.09448242 C20.87549596 144.54993029 23.54474423 140.06907578 26.3125 135.625 C29.15599978 131.04892242 31.81742861 126.42196778 34.34375 121.6640625 C35.65766733 119.25314816 37.0115042 116.88735836 38.40625 114.5234375 C38.82398682 113.80712158 39.24172363 113.09080566 39.67211914 112.3527832 C40.50270215 110.93151354 41.34276615 109.51573373 42.19311523 108.10620117 C44.42143938 104.56907516 44.42143938 104.56907516 44.67871094 100.55883789 C41.30941613 90.95877164 34.74029031 81.93920807 29.3125 73.375 C24 64.90927419 24 64.90927419 24 61.625 C23.34 61.295 22.68 60.965 22 60.625 C20.9296875 59.06640625 20.9296875 59.06640625 19.875 57.1875 C19.34519531 56.26130859 19.34519531 56.26130859 18.8046875 55.31640625 C18 53.625 18 53.625 18 51.625 C17.34 51.625 16.68 51.625 16 51.625 C15.61328125 50.82835937 15.2265625 50.03171875 14.828125 49.2109375 C11.55622506 42.41775849 11.55622506 42.41775849 7.625 36 C6 33.625 6 33.625 6 31.625 C4.515 31.13 4.515 31.13 3 30.625 C1.8125 28.0625 1.8125 28.0625 1 25.625 C-3.68360636 29.84368955 -6.74553959 34.63118311 -10 40 C-10.56541504 40.92264648 -11.13083008 41.84529297 -11.71337891 42.79589844 C-16.30548527 50.34724919 -20.66285834 58.02147587 -24.97363281 65.73583984 C-30.86744282 76.25241924 -37.09652822 86.56233766 -43.33740234 96.87548828 C-45.58878824 100.59870531 -47.82630149 104.33015039 -50.0625 108.0625 C-50.76167935 109.22658616 -51.46089576 110.39065008 -52.16015625 111.5546875 C-53.2976528 113.45293015 -54.43126984 115.35351095 -55.55859375 117.2578125 C-58.27014762 121.82850765 -61.08903699 126.30328997 -64 130.75 C-70.11518611 140.14961145 -75.64768247 149.90075064 -81.25439453 159.60839844 C-82.93143727 162.50651592 -84.61809716 165.39877655 -86.30859375 168.2890625 C-87.30994099 170.00518199 -88.31124551 171.7213264 -89.3125 173.4375 C-89.77446777 174.22535889 -90.23643555 175.01321777 -90.71240234 175.82495117 C-91.3439624 176.91126831 -91.3439624 176.91126831 -91.98828125 178.01953125 C-92.35477783 178.64706299 -92.72127441 179.27459473 -93.09887695 179.92114258 C-94.1448154 181.78614075 -94.1448154 181.78614075 -95 184.625 C-95.66 184.625 -96.32 184.625 -97 184.625 C-97 185.285 -97 185.945 -97 186.625 C-84.46 186.625 -71.92 186.625 -59 186.625 C-58.67 185.305 -58.34 183.985 -58 182.625 C-57.566875 182.19316406 -57.13375 181.76132813 -56.6875 181.31640625 C-54.16362542 178.78668936 -52.68600901 175.67926716 -51 172.5625 C-47.59386177 166.37645142 -44.02668577 160.31843089 -40.3125 154.3125 C-36.32713899 147.85175525 -32.577494 141.32133492 -29 134.625 C-18.92380752 115.90657176 -18.92380752 115.90657176 -14 111.625 C-10.375 110.8125 -10.375 110.8125 -7 111.625 C-4.37405888 114.4478867 -2.9643394 116.19857596 -3.0625 120.125 C-5.37106724 126.2811793 -8.84465955 131.78395833 -12.25 137.375 C-17.12953088 145.44994905 -21.90983336 153.57799958 -26.625 161.75 C-27.57862427 163.40249756 -27.57862427 163.40249756 -28.55151367 165.08837891 C-31.39706629 170.03694231 -34.22005784 174.99474674 -36.96484375 180 C-37.40940918 180.81065918 -37.85397461 181.62131836 -38.31201172 182.45654297 C-39.10762252 183.91573233 -39.89765202 185.37798909 -40.68017578 186.84423828 C-47.92954779 200.18585198 -47.92954779 200.18585198 -54 202.625 C-56.73193359 202.88569641 -56.73193359 202.88569641 -59.8984375 202.8996582 C-61.68048584 202.91395622 -61.68048584 202.91395622 -63.49853516 202.92854309 C-65.41738525 202.92717598 -65.41738525 202.92717598 -67.375 202.92578125 C-68.69161621 202.93006638 -70.00823242 202.9343515 -71.36474609 202.93876648 C-74.14880403 202.94621888 -76.93273513 202.94594421 -79.71679688 202.94067383 C-83.28127863 202.93487478 -86.8452415 202.95182472 -90.40963745 202.9750185 C-93.81478015 202.99330488 -97.21980845 202.98957054 -100.625 202.98828125 C-101.9042334 202.997491 -103.1834668 203.00670074 -104.50146484 203.01618958 C-105.68949707 203.00996078 -106.8775293 203.00373199 -108.1015625 202.99731445 C-109.66898193 202.99825859 -109.66898193 202.99825859 -111.26806641 202.9992218 C-114.38480008 202.57228987 -115.76191766 201.80414327 -118 199.625 C-119.01816929 194.96707595 -118.36977217 190.59345092 -116.6875 186.1875 C-115 183.625 -115 183.625 -113.62548828 182.34667969 C-111.38523019 179.97385 -109.93948371 177.33850224 -108.3046875 174.515625 C-107.95607162 173.91697128 -107.60745575 173.31831757 -107.24827576 172.70152283 C-106.11969373 170.76172985 -104.99741672 168.81836563 -103.875 166.875 C-102.70878446 164.86771878 -101.54091025 162.86140894 -100.37294006 160.85514832 C-99.60917649 159.54296632 -98.8459376 158.23047878 -98.08323669 156.91767883 C-95.5305496 152.5255591 -92.94224476 148.1588144 -90.3125 143.8125 C-85.25747055 135.43672022 -80.35049635 126.97463828 -75.4296875 118.51953125 C-74.86660889 117.55273438 -74.30353027 116.5859375 -73.72338867 115.58984375 C-72.54834061 113.5683416 -71.37677049 111.54481477 -70.20825195 109.51953125 C-66.76683891 103.5724992 -63.21891234 97.73622192 -59.4375 92 C-52.29090389 81.78182283 -52.29090389 81.78182283 -47 70.625 C-46.34 70.625 -45.68 70.625 -45 70.625 C-44.79117188 69.84382813 -44.58234375 69.06265625 -44.3671875 68.2578125 C-42.50698803 63.31499675 -39.85041522 59.01080084 -37.125 54.5 C-36.54709717 53.53296143 -35.96919434 52.56592285 -35.3737793 51.56958008 C-33.58823144 48.58458395 -31.79480124 45.60443944 -30 42.625 C-28.43404454 40.01633014 -26.86917933 37.40700888 -25.30444336 34.79760742 C-24.31349171 33.14699429 -23.32082767 31.49740792 -22.32641602 29.84887695 C-19.91381031 25.84473038 -17.52993924 21.82813283 -15.203125 17.7734375 C-14.53446411 16.6138855 -14.53446411 16.6138855 -13.85229492 15.4309082 C-13.02274001 13.98801967 -12.19945012 12.54150137 -11.3840332 11.09057617 C-5.67593808 1.1824871 -5.67593808 1.1824871 0 0 Z " fill="#132269" transform="translate(118,1.375)"/>
<path d="M0 0 C0.66 0 1.32 0 2 0 C-1.35620856 8.95559732 -7.26594046 23.80560844 -15.72021484 29.07145691 C-18.56976813 30.23206321 -20.82195496 30.26109333 -23.8984375 30.2746582 C-25.08646973 30.28419022 -26.27450195 30.29372223 -27.49853516 30.30354309 C-29.41738525 30.30217598 -29.41738525 30.30217598 -31.375 30.30078125 C-32.69161621 30.30506638 -34.00823242 30.3093515 -35.36474609 30.31376648 C-38.14880403 30.32121888 -40.93273513 30.32094421 -43.71679688 30.31567383 C-47.28127863 30.30987478 -50.8452415 30.32682472 -54.40963745 30.3500185 C-57.81478015 30.36830488 -61.21980845 30.36457054 -64.625 30.36328125 C-66.5438501 30.37709587 -66.5438501 30.37709587 -68.50146484 30.39118958 C-69.68949707 30.38496078 -70.8775293 30.37873199 -72.1015625 30.37231445 C-73.66898193 30.37325859 -73.66898193 30.37325859 -75.26806641 30.3742218 C-78.38480008 29.94728987 -79.76191766 29.17914327 -82 27 C-83.02790051 22.29755751 -82.33214837 17.90154557 -80.6875 13.4375 C-79 11 -79 11 -76 10 C-76.92638213 12.38212548 -77.83235994 14.69430342 -79.0625 16.9375 C-80.26138896 19.57505571 -80.61027831 22.14204094 -81 25 C-80.34 25 -79.68 25 -79 25 C-79 25.66 -79 26.32 -79 27 C-70.91452128 27.47564444 -62.84089746 27.80441863 -54.74349117 27.95596504 C-50.98039134 28.03080503 -47.23203327 28.15232476 -43.4753418 28.38867188 C-28.95149676 29.3695295 -28.95149676 29.3695295 -15 26 C-7.44783853 19.06945163 -3.44604197 9.49183439 0 0 Z " fill="#888FB2" transform="translate(82,174)"/>
<path d="M0 0 C0.66 0.33 1.32 0.66 2 1 C0.35 4.63 -1.3 8.26 -3 12 C-2.05896927 11.98525131 -1.11793854 11.97050262 -0.14839172 11.95530701 C8.72380944 11.81695378 17.59607947 11.68424073 26.46844769 11.5570364 C31.02971344 11.49145997 35.59093188 11.42390301 40.15209961 11.35180664 C44.55460069 11.28229134 48.95715 11.21799576 53.35978127 11.15730476 C55.03870214 11.13324583 56.71759725 11.10731236 58.39645958 11.07946587 C60.74953561 11.04075803 63.1026154 11.008741 65.45581055 10.97827148 C66.49483017 10.95885246 66.49483017 10.95885246 67.55484009 10.93904114 C71.17543165 10.8996087 74.48026969 11.13478161 78 12 C76.95902388 8.13351728 75.96301592 4.50538557 74 1 C77 2 77 2 78.6875 4.3125 C80 7 80 7 80 11 C80.99 11.33 81.98 11.66 83 12 C83 12.66 83 13.32 83 14 C53.3 14 23.6 14 -7 14 C-4.69 9.38 -2.38 4.76 0 0 Z " fill="#F0F0F1" transform="translate(247,176)"/>
<path d="M0 0 C40.26 0 80.52 0 122 0 C121 2 121 2 119.23400116 2.61664295 C116.86356809 3.02341187 114.66116889 3.1288236 112.25598145 3.13371277 C110.83020531 3.14011024 110.83020531 3.14011024 109.37562561 3.14663696 C107.82167336 3.14595718 107.82167336 3.14595718 106.23632812 3.14526367 C105.14001572 3.14862228 104.04370331 3.1519809 102.91416931 3.15544128 C99.28651805 3.16494841 95.65891294 3.16689414 92.03125 3.16796875 C89.51306133 3.17118097 86.99487285 3.17454502 84.47668457 3.17805481 C79.19750671 3.18404511 73.9183406 3.18593755 68.63916016 3.18530273 C62.53839953 3.18470155 56.4377272 3.19526334 50.33698893 3.2110464 C44.46476032 3.22569651 38.5925667 3.22929088 32.72032166 3.22869301 C30.22281025 3.22987516 27.72529823 3.23431005 25.22779846 3.24202538 C21.73968105 3.25179369 18.25179277 3.24895986 14.76367188 3.24291992 C13.20971962 3.25134918 13.20971962 3.25134918 11.62437439 3.25994873 C10.67385696 3.25575424 9.72333954 3.25155975 8.74401855 3.24723816 C7.91960014 3.24778293 7.09518173 3.24832769 6.24578094 3.24888897 C3.7741652 2.97497183 2.1397517 2.23668264 0 1 C0 0.67 0 0.34 0 0 Z " fill="#A1A7C1" transform="translate(224,201)"/>
<path d="M0 0 C0.33 0.66 0.66 1.32 1 2 C-0.1875 4.30322266 -0.1875 4.30322266 -2 7.1640625 C-2.639375 8.20433594 -3.27875 9.24460938 -3.9375 10.31640625 C-5.30199408 12.50528218 -6.67686381 14.68772746 -8.0625 16.86328125 C-8.701875 17.91128906 -9.34125 18.95929688 -10 20.0390625 C-10.598125 20.98990723 -11.19625 21.94075195 -11.8125 22.92041016 C-13.55167416 26.70787622 -13.55167416 26.70787622 -12 34 C9.12 34 30.24 34 52 34 C50 36 50 36 47.45715332 36.24723816 C46.38396851 36.24581314 45.31078369 36.24438812 44.20507812 36.24291992 C42.9904187 36.24599655 41.77575928 36.24907318 40.52429199 36.25224304 C39.20658813 36.24505753 37.88888428 36.23787201 36.53125 36.23046875 C35.17126509 36.22927689 33.81127935 36.2288238 32.45129395 36.2290802 C29.59980116 36.22751505 26.74843387 36.21922324 23.89697266 36.20581055 C20.23823923 36.18882063 16.5796438 36.1849962 12.92087555 36.18575573 C10.1122302 36.18548405 7.30361514 36.18000318 4.49497986 36.17275429 C2.48855966 36.16801554 0.48213309 36.16629102 -1.52429199 36.16459656 C-2.73895142 36.15821671 -3.95361084 36.15183685 -5.20507812 36.14526367 C-6.81485535 36.13954597 -6.81485535 36.13954597 -8.45715332 36.13371277 C-11 36 -11 36 -13 35 C-13 34.34 -13 33.68 -13 33 C-13.66 33 -14.32 33 -15 33 C-16.45155643 28.16147856 -15.59674287 25.67037755 -13.29199219 21.28710938 C-10.92535188 17.09763727 -8.349167 13.04798497 -5.75 9 C-5.19570312 8.12988281 -4.64140625 7.25976562 -4.0703125 6.36328125 C-2.71698361 4.23995489 -1.36017005 2.11894788 0 0 Z " fill="#9BA1BD" transform="translate(126,168)"/>
<path d="M0 0 C5.1879218 0.87930878 6.68399525 3.48691894 9.6875 7.625 C11.98355656 11.22016472 14.09011497 14.9112126 16.1875 18.625 C21.76411841 28.37367667 27.52054747 37.98567181 33.5078125 47.48828125 C34.07113281 48.39707031 34.63445312 49.30585937 35.21484375 50.2421875 C35.96882446 51.44270752 35.96882446 51.44270752 36.73803711 52.66748047 C37.20802124 53.63645264 37.20802124 53.63645264 37.6875 54.625 C37.1925 55.615 37.1925 55.615 36.6875 56.625 C33.6875 52.875 33.6875 52.875 33.6875 50.625 C33.0275 50.625 32.3675 50.625 31.6875 50.625 C30.65698242 49.22998047 30.65698242 49.22998047 29.54296875 47.2421875 C28.90790405 46.12493286 28.90790405 46.12493286 28.26000977 44.98510742 C27.57442993 43.75497925 27.57442993 43.75497925 26.875 42.5 C25.88905681 40.76373423 24.90203161 39.02808254 23.9140625 37.29296875 C23.39231445 36.37306152 22.87056641 35.4531543 22.33300781 34.50537109 C19.51919785 29.57995122 16.63566432 24.6960584 13.75 19.8125 C13.20690186 18.88872559 12.66380371 17.96495117 12.10424805 17.01318359 C10.64535097 14.54211566 9.17195169 12.08078262 7.6875 9.625 C7.3052124 8.98264404 6.9229248 8.34028809 6.52905273 7.6784668 C5.43126528 5.85707405 5.43126528 5.85707405 3.6875 3.625 C0.64441709 2.87484805 0.64441709 2.87484805 -2.3125 3.625 C-6.24945771 6.73257195 -8.21474595 11.60603708 -10.59375 15.91015625 C-12.3125 18.625 -12.3125 18.625 -15.3125 20.625 C-13.84802694 16.67602288 -11.99440364 13.13717012 -9.875 9.5 C-9.27816406 8.46617188 -8.68132812 7.43234375 -8.06640625 6.3671875 C-4.54208186 0.85699658 -4.54208186 0.85699658 0 0 Z " fill="#B5B9CC" transform="translate(229.3125,1.375)"/>
<path d="M0 0 C4.11930552 3.52798586 6.75220246 7.57120781 9.375 12.25 C10.23125495 13.74713496 11.08946205 15.24315448 11.94921875 16.73828125 C12.42278809 17.56279785 12.89635742 18.38731445 13.38427734 19.23681641 C15.22446231 22.38387192 17.11770016 25.49528947 19.01953125 28.60546875 C19.71510091 29.74636172 20.41057613 30.88731228 21.10595703 32.02832031 C22.48542089 34.28762518 23.87045327 36.54354017 25.26123047 38.79589844 C25.8904541 39.83133789 26.51967773 40.86677734 27.16796875 41.93359375 C28.02297974 43.3266272 28.02297974 43.3266272 28.89526367 44.74780273 C29.25982666 45.49102783 29.62438965 46.23425293 30 47 C29.505 47.99 29.505 47.99 29 49 C28.67 48.01 28.34 47.02 28 46 C27.34 46 26.68 46 26 46 C24.67480469 44.1550293 24.67480469 44.1550293 23.171875 41.57421875 C22.34236328 40.15979492 22.34236328 40.15979492 21.49609375 38.71679688 C20.91988281 37.71712891 20.34367187 36.71746094 19.75 35.6875 C19.18925781 34.73037109 18.62851563 33.77324219 18.05078125 32.78710938 C15.22369164 27.93927096 12.47113745 23.05879749 9.796875 18.125 C7.80100053 14.44778243 5.7991203 10.81189634 3.5 7.3125 C2.9740625 6.48363281 2.448125 5.65476562 1.90625 4.80078125 C0.06110776 2.73282848 0.06110776 2.73282848 -2.98828125 2.4375 C-6.10503468 2.72598293 -6.10503468 2.72598293 -8.01171875 5.01171875 C-8.56472656 5.89472656 -9.11773437 6.77773437 -9.6875 7.6875 C-10.24824219 8.55761719 -10.80898437 9.42773438 -11.38671875 10.32421875 C-11.91910156 11.20722656 -12.45148438 12.09023437 -13 13 C-13.54398438 13.88042969 -14.08796875 14.76085938 -14.6484375 15.66796875 C-16.08185691 17.97887963 -16.08185691 17.97887963 -16.9375 20.625 C-18.16900192 23.377769 -19.48379306 24.40640227 -22 26 C-20.45065491 20.31601209 -17.63234382 15.71298089 -14.5625 10.75 C-13.82676758 9.52796875 -13.82676758 9.52796875 -13.07617188 8.28125 C-12.59857422 7.50265625 -12.12097656 6.7240625 -11.62890625 5.921875 C-11.19650635 5.21643555 -10.76410645 4.51099609 -10.31860352 3.78417969 C-7.42300752 -0.13380135 -4.60594684 -0.64483256 0 0 Z " fill="#CED1DD" transform="translate(121,2)"/>
<path d="M0 0 C0.66 0.33 1.32 0.66 2 1 C1.60619141 1.67579102 1.21238281 2.35158203 0.80664062 3.04785156 C-0.97119027 6.11013898 -2.73570033 9.17989849 -4.5 12.25 C-5.43005859 13.84521484 -5.43005859 13.84521484 -6.37890625 15.47265625 C-6.96542969 16.49746094 -7.55195313 17.52226562 -8.15625 18.578125 C-8.97319336 19.99206543 -8.97319336 19.99206543 -9.80664062 21.43457031 C-11.28118023 24.13290086 -11.28118023 24.13290086 -11 28 C0.55 28 12.1 28 24 28 C24 27.34 24 26.68 24 26 C24.66 26 25.32 26 26 26 C26.2475 25.2575 26.495 24.515 26.75 23.75 C28.09147301 20.79875938 29.60905526 19.15185026 32 17 C31.41646396 18.6975594 30.71949183 20.35544725 30 22 C29.70901932 22.66511597 29.41803864 23.33023193 29.11824036 24.01550293 C26.24906381 29.57602358 26.24906381 29.57602358 22.92782593 30.70336914 C20.35843971 30.92723778 17.9006522 30.90039278 15.32421875 30.78125 C14.3990596 30.76993042 13.47390045 30.75861084 12.52070618 30.74694824 C9.57417087 30.70226534 6.63255613 30.60192668 3.6875 30.5 C1.6869194 30.45986215 -0.31373773 30.4233619 -2.31445312 30.390625 C-7.21152285 30.30255706 -12.10492822 30.16457214 -17 30 C-13.37418417 22.5178529 -9.5357036 15.29753728 -5.125 8.25 C-4.62742188 7.445625 -4.12984375 6.64125 -3.6171875 5.8125 C-2.41599685 3.8721151 -1.21031801 1.93469948 0 0 Z " fill="#F0F0F0" transform="translate(146,160)"/>
<path d="M0 0 C3 1 3 1 4.6875 3.875 C6 7 6 7 6 10 C6.66 10 7.32 10 8 10 C8.87756515 11.3391219 9.72606467 12.69730991 10.5625 14.0625 C11.03816406 14.81660156 11.51382813 15.57070312 12.00390625 16.34765625 C13.3893696 20.036792 12.97448261 22.19139714 12 26 C10.6885263 28.66880809 9.09617202 31.09804744 7.4375 33.5625 C6.53021584 34.95811942 5.62531224 36.35528898 4.72265625 37.75390625 C4.26777832 38.45531738 3.81290039 39.15672852 3.34423828 39.87939453 C1.24500047 43.19105084 -0.6982025 46.58594323 -2.625 50 C-2.96732666 50.60529541 -3.30965332 51.21059082 -3.66235352 51.83422852 C-4.44438648 53.22123421 -5.22266717 54.61035471 -6 56 C-6.66 56 -7.32 56 -8 56 C-6.70994531 51.74045965 -5.0829454 48.12794609 -2.8125 44.3046875 C-2.19632813 43.25925781 -1.58015625 42.21382812 -0.9453125 41.13671875 C-0.30335938 40.06035156 0.33859375 38.98398438 1 37.875 C2.27184681 35.72716231 3.54272113 33.57874838 4.8125 31.4296875 C5.37582031 30.48335449 5.93914062 29.53702148 6.51953125 28.56201172 C9.12959881 24.57545892 9.12959881 24.57545892 9.8046875 20.09375 C8.78056754 17.42904951 7.50508338 14.99925547 6.125 12.5 C5.61195313 11.5615625 5.09890625 10.623125 4.5703125 9.65625 C3.08522115 7.01076234 3.08522115 7.01076234 1.3046875 4.84375 C0 3 0 3 0 0 Z " fill="#C1C5D4" transform="translate(153,82)"/>
<path d="M0 0 C2.94528356 2.76147746 5.08334429 5.47940473 7.14453125 8.9453125 C7.73226318 9.92814209 8.31999512 10.91097168 8.92553711 11.92358398 C9.85958374 13.50828491 9.85958374 13.50828491 10.8125 15.125 C11.46033447 16.21562744 12.10816895 17.30625488 12.77563477 18.42993164 C14.85951137 21.94802485 16.93167804 25.47275332 19 29 C19.35646606 29.60684631 19.71293213 30.21369263 20.0802002 30.83892822 C22.20485212 34.45647865 24.32259302 38.077933 26.43051147 41.70526123 C27.42736049 43.42005784 28.42716654 45.13313434 29.42700195 46.84619141 C30.02730225 47.88565918 30.62760254 48.92512695 31.24609375 49.99609375 C31.77904053 50.91575928 32.3119873 51.8354248 32.86108398 52.78295898 C34 55 34 55 34 57 C33.34 57 32.68 57 32 57 C30.63061523 55.03491211 30.63061523 55.03491211 29.05859375 52.27734375 C28.47924072 51.27098877 27.8998877 50.26463379 27.30297852 49.2277832 C26.68737061 48.14198975 26.0717627 47.05619629 25.4375 45.9375 C24.16485366 43.72089974 22.89141718 41.50475294 21.6171875 39.2890625 C20.68664551 37.66532715 20.68664551 37.66532715 19.73730469 36.00878906 C17.56380499 32.24456614 15.32491744 28.52369393 13.0625 24.8125 C9.60558462 19.12943255 6.45274249 13.32660597 3.41015625 7.4140625 C2.22879048 4.88658516 2.22879048 4.88658516 0 4 C0 2.68 0 1.36 0 0 Z " fill="#C5C9D7" transform="translate(288,94)"/>
<path d="M0 0 C0.33 0.66 0.66 1.32 1 2 C0.24658203 3.7331543 0.24658203 3.7331543 -0.9921875 5.82421875 C-1.4456958 6.59830078 -1.8992041 7.37238281 -2.36645508 8.16992188 C-2.8642749 9.00072266 -3.36209473 9.83152344 -3.875 10.6875 C-4.62849731 11.96657227 -4.62849731 11.96657227 -5.3972168 13.27148438 C-8.86728421 19.14837957 -12.3898363 24.99439429 -15.921875 30.83422852 C-18.65175749 35.36521302 -21.22416115 39.96465338 -23.7109375 44.6328125 C-26.47435897 49.70745921 -26.47435897 49.70745921 -28 52 C-28.66 52 -29.32 52 -30 52 C-28.61625419 47.2402042 -26.53915876 43.24470951 -23.9375 39.0625 C-23.13006537 37.74097275 -22.32277812 36.41935546 -21.515625 35.09765625 C-21.10119141 34.4236377 -20.68675781 33.74961914 -20.25976562 33.05517578 C-18.21343374 29.71679946 -16.20106587 26.35820254 -14.1875 23 C-13.82712646 22.40195557 -13.46675293 21.80391113 -13.09545898 21.18774414 C-11.34023737 18.26888918 -9.61688633 15.33617365 -7.94140625 12.37109375 C-6.30003252 9.52098203 -4.59253273 6.78442335 -2.75 4.0625 C-2.22921875 3.29035156 -1.7084375 2.51820312 -1.171875 1.72265625 C-0.78515625 1.15417969 -0.3984375 0.58570312 0 0 Z " fill="#BCC0D1" transform="translate(61,90)"/>
<path d="M0 0 C0.33 0.66 0.66 1.32 1 2 C-0.1875 4.30322266 -0.1875 4.30322266 -2 7.1640625 C-2.639375 8.20433594 -3.27875 9.24460938 -3.9375 10.31640625 C-5.30199408 12.50528218 -6.67686381 14.68772746 -8.0625 16.86328125 C-8.701875 17.91128906 -9.34125 18.95929688 -10 20.0390625 C-10.598125 20.98990723 -11.19625 21.94075195 -11.8125 22.92041016 C-13.55167416 26.70787622 -13.55167416 26.70787622 -12 34 C-3.75 34.33 4.5 34.66 13 35 C13 35.33 13 35.66 13 36 C9.04168191 36.02892857 5.08339083 36.04677427 1.125 36.0625 C-0.56689453 36.07506836 -0.56689453 36.07506836 -2.29296875 36.08789062 C-3.36933594 36.09111328 -4.44570312 36.09433594 -5.5546875 36.09765625 C-6.54968262 36.10289307 -7.54467773 36.10812988 -8.56982422 36.11352539 C-11 36 -11 36 -13 35 C-13 34.34 -13 33.68 -13 33 C-13.66 33 -14.32 33 -15 33 C-16.45155643 28.16147856 -15.59674287 25.67037755 -13.29199219 21.28710938 C-10.92535188 17.09763727 -8.349167 13.04798497 -5.75 9 C-5.19570312 8.12988281 -4.64140625 7.25976562 -4.0703125 6.36328125 C-2.71698361 4.23995489 -1.36017005 2.11894788 0 0 Z " fill="#DCDDE5" transform="translate(126,168)"/>
<path d="M0 0 C0.33 0.66 0.66 1.32 1 2 C0.1105957 3.94506836 0.1105957 3.94506836 -1.32421875 6.33984375 C-1.85313721 7.22978027 -2.38205566 8.1197168 -2.92700195 9.03662109 C-3.50796631 9.99391113 -4.08893066 10.95120117 -4.6875 11.9375 C-5.27168701 12.91283691 -5.85587402 13.88817383 -6.45776367 14.89306641 C-12.15324652 24.35720209 -18.03438503 33.70424763 -24 43 C-24.33 42.34 -24.66 41.68 -25 41 C-23.71627258 38.61075674 -22.38303052 36.35123323 -20.9375 34.0625 C-20.09204958 32.69115104 -19.24830577 31.3187485 -18.40625 29.9453125 C-17.99117187 29.27016602 -17.57609375 28.59501953 -17.1484375 27.89941406 C-15.66839332 25.45155187 -14.2913141 22.95709846 -12.9375 20.4375 C-10.58073074 16.0606428 -8.18850141 11.70675807 -5.75 7.375 C-5.40831787 6.75810303 -5.06663574 6.14120605 -4.71459961 5.50561523 C-2.22998311 1.11499155 -2.22998311 1.11499155 0 0 Z " fill="#BCC0D1" transform="translate(199,73)"/>
<path d="M0 0 C3.87068612 1.29022871 4.15899908 2.5751373 6.07421875 6.109375 C6.94711548 7.69866821 6.94711548 7.69866821 7.83764648 9.32006836 C8.44809814 10.4519458 9.0585498 11.58382324 9.6875 12.75 C10.94038237 15.03903505 12.19557303 17.32680826 13.453125 19.61328125 C14.36288086 21.2677124 14.36288086 21.2677124 15.29101562 22.95556641 C17.95774421 27.70615291 20.85440453 32.28505661 23.83984375 36.83984375 C24.22269531 37.55269531 24.60554688 38.26554687 25 39 C24.67 39.66 24.34 40.32 24 41 C17.61603387 32.52435896 12.50063023 23.36768745 7.25097656 14.16845703 C5.21509945 10.63944444 3.08218881 7.17117024 0.92578125 3.71484375 C0 2 0 2 0 0 Z " fill="#BEC2D2" transform="translate(271,93)"/>
<path d="M0 0 C0 3 0 3 -2 7 C-15.86 7 -29.72 7 -44 7 C-43.67 5.68 -43.34 4.36 -43 3 C-42.34 3 -41.68 3 -41 3 C-41 3.66 -41 4.32 -41 5 C-28.46 5 -15.92 5 -3 5 C-2.67 3.68 -2.34 2.36 -2 1 C-1.34 0.67 -0.68 0.34 0 0 Z " fill="#EFEFF0" transform="translate(62,183)"/>
<path d="M0 0 C4.50090729 0.76286564 5.64856678 2.01715591 8.33203125 5.53515625 C10.43659835 8.7799499 12.08245256 12.10624215 13.6875 15.625 C9.04876695 14.07875565 7.96905735 10.14952803 5.69921875 5.99609375 C3.86514031 3.32100476 3.86514031 3.32100476 0.64453125 3.09765625 C-2.65442562 3.68597749 -3.40280756 3.95476144 -5.3125 6.625 C-7.15522938 9.67806755 -8.86876249 12.7892907 -10.59375 15.91015625 C-12.3125 18.625 -12.3125 18.625 -15.3125 20.625 C-13.84802694 16.67602288 -11.99440364 13.13717012 -9.875 9.5 C-9.27816406 8.46617188 -8.68132812 7.43234375 -8.06640625 6.3671875 C-4.54208186 0.85699658 -4.54208186 0.85699658 0 0 Z " fill="#D7D9E2" transform="translate(229.3125,1.375)"/>
<path d="M0 0 C3.5625 0.5625 3.5625 0.5625 6.0625 3.25 C7.64951727 6.75466313 7.81710528 8.00778504 6.5625 11.5625 C6.2325 11.5625 5.9025 11.5625 5.5625 11.5625 C5.0984375 9.8609375 5.0984375 9.8609375 4.625 8.125 C3.93325469 4.77474901 3.93325469 4.77474901 2.5625 3.5625 C-0.21856497 2.64130436 -0.21856497 2.64130436 -3.4375 3.5625 C-5.89244656 6.64043551 -7.60875301 10.0873878 -9.4375 13.5625 C-10.33793851 15.0929974 -11.25302579 16.61504313 -12.1875 18.125 C-12.57421875 18.76566406 -12.9609375 19.40632813 -13.359375 20.06640625 C-14.4375 21.5625 -14.4375 21.5625 -16.4375 22.5625 C-15.06183955 17.85104116 -13.09404947 14.03417429 -10.5 9.875 C-9.81035156 8.75738281 -9.12070313 7.63976562 -8.41015625 6.48828125 C-4.53599932 0.74225443 -4.53599932 0.74225443 0 0 Z " fill="#BABED0" transform="translate(107.4375,112.4375)"/>
<path d="M0 0 C3 1 3 1 4.6875 3.3125 C6 6 6 6 6 10 C6.99 10.33 7.98 10.66 9 11 C9 11.66 9 12.32 9 13 C0.09 13 -8.82 13 -18 13 C-18 12.67 -18 12.34 -18 12 C-15.2718186 11.63604195 -12.54296095 11.28355188 -9.8125 10.9375 C-9.04357422 10.83373047 -8.27464844 10.72996094 -7.48242188 10.62304688 C-3.40719806 10.11583018 -0.01801421 9.84854503 4 11 C2.95902388 7.13351728 1.96301592 3.50538557 0 0 Z " fill="#E3E4E8" transform="translate(321,177)"/>
<path d="M0 0 C0.33 0.66 0.66 1.32 1 2 C-0.24755859 4.67041016 -0.24755859 4.67041016 -2.1484375 8.0390625 C-2.83098404 9.27199436 -3.51326702 10.50507215 -4.1953125 11.73828125 C-5.27925497 13.67598724 -6.36721805 15.61125212 -7.4609375 17.54345703 C-8.51402889 19.41086863 -9.55059449 21.28676749 -10.5859375 23.1640625 C-11.2154834 24.28248535 -11.8450293 25.4009082 -12.49365234 26.55322266 C-14.23703196 30.54236907 -14.65370043 33.68334935 -15 38 C-17 37 -17 37 -17.7265625 35.19848633 C-18.06186808 32.50256957 -17.54122907 31.26211602 -16.375 28.82421875 C-15.99988281 28.03708496 -15.62476563 27.24995117 -15.23828125 26.43896484 C-13.24494217 22.51280998 -11.15908409 18.64978127 -9 14.8125 C-8.57460937 14.04486328 -8.14921875 13.27722656 -7.7109375 12.48632812 C-5.31063387 8.19007915 -2.79225498 4.05264785 0 0 Z " fill="#CCCFDB" transform="translate(239,163)"/>
<path d="M0 0 C0.66 0 1.32 0 2 0 C0.68505733 4.99678214 -1.66541392 8.93527333 -4.35546875 13.28125 C-6.02325909 16.03845208 -7.55011836 18.84250301 -9.0625 21.6875 C-11.41996812 26.06654369 -14.00359052 30.03416392 -17 34 C-17.66 33.67 -18.32 33.34 -19 33 C-18.60208252 32.3201001 -18.20416504 31.6402002 -17.79418945 30.93969727 C-15.96594623 27.81455645 -14.13921394 24.68853494 -12.3125 21.5625 C-11.37374023 19.95858398 -11.37374023 19.95858398 -10.41601562 18.32226562 C-6.87132084 12.25359969 -3.3769868 6.16371533 0 0 Z " fill="#A1A7C0" transform="translate(197,168)"/>
<path d="M0 0 C4.23796644 3.84252239 6.82150693 7.78577123 9.5 12.8125 C10.27698556 14.2391867 11.05561555 15.66497914 11.8359375 17.08984375 C12.20557617 17.76644043 12.57521484 18.44303711 12.95605469 19.14013672 C14.2520601 21.44906311 15.66787269 23.66488791 17.125 25.875 C17.74375 26.90625 18.3625 27.9375 19 29 C18.67 29.66 18.34 30.32 18 31 C17.67 30.01 17.34 29.02 17 28 C16.34 28 15.68 28 15 28 C13.61132812 26.07568359 13.61132812 26.07568359 12.03125 23.3984375 C11.46019531 22.43292969 10.88914063 21.46742187 10.30078125 20.47265625 C9.70652344 19.45042969 9.11226562 18.42820312 8.5 17.375 C7.90574219 16.37597656 7.31148437 15.37695312 6.69921875 14.34765625 C3.92491435 9.61943995 1.61040495 5.26471115 0 0 Z " fill="#AAAFC6" transform="translate(132,20)"/>
<path d="M0 0 C0.99682241 2.60077991 1.13022895 3.68115545 0.05957031 6.30249023 C-0.42930664 7.12950439 -0.91818359 7.95651855 -1.421875 8.80859375 C-1.95296875 9.72060547 -2.4840625 10.63261719 -3.03125 11.57226562 C-3.5984375 12.51779297 -4.165625 13.46332031 -4.75 14.4375 C-5.30171875 15.37916016 -5.8534375 16.32082031 -6.421875 17.29101562 C-7.93526548 19.86850879 -9.4630758 22.43648662 -11 25 C-11.5146582 25.9269165 -12.02931641 26.85383301 -12.55957031 27.80883789 C-13.03491211 28.53192139 -13.51025391 29.25500488 -14 30 C-14.66 30 -15.32 30 -16 30 C-14.42334901 24.26248309 -11.57288972 19.51238124 -8.5625 14.4375 C-8.07201172 13.60025391 -7.58152344 12.76300781 -7.07617188 11.90039062 C-4.74068427 7.91966074 -2.38404977 3.95186556 0 0 Z " fill="#9BA2BD" transform="translate(211,118)"/>
<path d="M0 0 C0.66 0.33 1.32 0.66 2 1 C0.35 4.63 -1.3 8.26 -3 12 C3.27 12.33 9.54 12.66 16 13 C16 13.33 16 13.66 16 14 C8.41 14 0.82 14 -7 14 C-4.69 9.38 -2.38 4.76 0 0 Z " fill="#EAEAEC" transform="translate(247,176)"/>
<path d="M0 0 C0.66 0 1.32 0 2 0 C0.39865231 4.27298389 -1.6112148 8.28913776 -3.75 12.3125 C-4.10126953 12.97386963 -4.45253906 13.63523926 -4.81445312 14.31665039 C-7.48125673 19.24309816 -10.45087346 23.65231999 -14 28 C-14.33 27.34 -14.66 26.68 -15 26 C-13.73657227 23.38623047 -13.73657227 23.38623047 -11.81640625 20.1171875 C-11.48205063 19.54292023 -11.14769501 18.96865295 -10.8032074 18.37698364 C-9.73045365 16.53849075 -8.64666135 14.70678445 -7.5625 12.875 C-6.83455164 11.63194044 -6.10732842 10.38845593 -5.38085938 9.14453125 C-3.59563672 6.09137307 -1.80045557 3.04420585 0 0 Z " fill="#A8AEC5" transform="translate(82,174)"/>
<path d="M0 0 C0.92154781 2.49074577 1.16081188 3.60816581 0.13549805 6.10644531 C-0.54452271 7.20617676 -0.54452271 7.20617676 -1.23828125 8.328125 C-1.97401367 9.52695312 -1.97401367 9.52695312 -2.72460938 10.75 C-3.24861328 11.575 -3.77261719 12.4 -4.3125 13.25 C-4.82490234 14.09046875 -5.33730469 14.9309375 -5.86523438 15.796875 C-8.70260516 20.35442494 -8.70260516 20.35442494 -10 22 C-10.66 22 -11.32 22 -12 22 C-12 23.32 -12 24.64 -12 26 C-12.99 26.33 -13.98 26.66 -15 27 C-13.7544571 22.88497851 -12.24966623 19.45535224 -9.9609375 15.8203125 C-9.09082031 14.428125 -9.09082031 14.428125 -8.203125 13.0078125 C-7.29820312 11.58082031 -7.29820312 11.58082031 -6.375 10.125 C-5.76398438 9.15046875 -5.15296875 8.1759375 -4.5234375 7.171875 C-3.02119097 4.77766959 -1.51326224 2.38725228 0 0 Z " fill="#9EA4BE" transform="translate(206,34)"/>
<path d="M0 0 C0 3.96029201 -1.78429723 6.44594641 -3.75 9.75 C-4.09804687 10.34554687 -4.44609375 10.94109375 -4.8046875 11.5546875 C-5.5074602 12.75720967 -6.21253862 13.95838732 -6.91992188 15.15820312 C-8.63953645 18.09056577 -10.31834238 21.04573662 -12 24 C-12.66 24 -13.32 24 -14 24 C-12.46602148 18.53520151 -9.88493047 14.0218192 -7 9.1875 C-6.54882812 8.41212891 -6.09765625 7.63675781 -5.6328125 6.83789062 C-2.25576475 1.12788238 -2.25576475 1.12788238 0 0 Z " fill="#A3A9C2" transform="translate(159,114)"/>
<path d="M0 0 C0.99 0.33 1.98 0.66 3 1 C3 1.99 3 2.98 3 4 C3.66 4 4.32 4 5 4 C5.66 6.31 6.32 8.62 7 11 C7.66 11 8.32 11 9 11 C9.33 12.65 9.66 14.3 10 16 C10.66 16 11.32 16 12 16 C12.33 17.65 12.66 19.3 13 21 C13.66 21 14.32 21 15 21 C15.33 22.98 15.66 24.96 16 27 C13.74530627 24.89762842 12.16546394 22.82950452 10.625 20.1640625 C10.19703125 19.42929687 9.7690625 18.69453125 9.328125 17.9375 C8.88984375 17.174375 8.4515625 16.41125 8 15.625 C7.12511969 14.11711805 6.2501226 12.60930385 5.375 11.1015625 C4.96636719 10.39161133 4.55773437 9.68166016 4.13671875 8.95019531 C3.18185844 7.31200283 2.18896968 5.69605901 1.1875 4.0859375 C0 2 0 2 0 0 Z " fill="#A0A6C0" transform="translate(238,37)"/>
<path d="M0 0 C0.66 0 1.32 0 2 0 C3.76171875 2.5546875 3.76171875 2.5546875 5.6875 5.875 C6.33074219 6.96554688 6.97398438 8.05609375 7.63671875 9.1796875 C8.08660156 10.11039063 8.53648438 11.04109375 9 12 C8.67 12.66 8.34 13.32 8 14 C7.67 13.01 7.34 12.02 7 11 C6.01 10.67 5.02 10.34 4 10 C2.8125 7.4375 2.8125 7.4375 2 5 C1.236875 5.763125 0.47375 6.52625 -0.3125 7.3125 C-2.20833333 9.20833333 -4.10416667 11.10416667 -6 13 C-4.58707905 8.1725201 -2.57025846 4.2837641 0 0 Z " fill="#D6D8E1" transform="translate(117,22)"/>
<path d="M0 0 C3.5996767 1.19989223 3.86867665 1.98403808 5.69921875 5.18359375 C6.18583984 6.02857422 6.67246094 6.87355469 7.17382812 7.74414062 C7.67333984 8.63294922 8.17285156 9.52175781 8.6875 10.4375 C9.19861328 11.32244141 9.70972656 12.20738281 10.23632812 13.11914062 C14 19.7168725 14 19.7168725 14 22 C13.34 22 12.68 22 12 22 C10.67138672 20.19580078 10.67138672 20.19580078 9.1796875 17.6953125 C8.64472656 16.80199219 8.10976563 15.90867188 7.55859375 14.98828125 C7.00300781 14.04339844 6.44742187 13.09851563 5.875 12.125 C5.31167969 11.18785156 4.74835938 10.25070313 4.16796875 9.28515625 C0 2.27126211 0 2.27126211 0 0 Z " fill="#A0A6C0" transform="translate(308,129)"/>
<path d="M0 0 C0.66 0.33 1.32 0.66 2 1 C-0.08918425 4.82089675 -2.19878897 8.63012466 -4.3125 12.4375 C-5.20485352 14.07041992 -5.20485352 14.07041992 -6.11523438 15.73632812 C-6.98051758 17.28803711 -6.98051758 17.28803711 -7.86328125 18.87109375 C-8.39219971 19.82943115 -8.92111816 20.78776855 -9.46606445 21.77514648 C-11 24 -11 24 -14 25 C-12.68071914 21.48283007 -11.12651609 18.34691482 -9.1796875 15.13671875 C-8.37724609 13.80737305 -8.37724609 13.80737305 -7.55859375 12.45117188 C-6.72521484 11.0831543 -6.72521484 11.0831543 -5.875 9.6875 C-5.31167969 8.75615234 -4.74835938 7.82480469 -4.16796875 6.86523438 C-2.7819554 4.57478858 -1.39254372 2.28647924 0 0 Z " fill="#9BA2BD" transform="translate(146,160)"/>
<path d="M0 0 C2.63520741 2.40502363 4.40302943 5.0185849 6.25 8.0625 C6.79140625 8.94035156 7.3328125 9.81820313 7.890625 10.72265625 C8.25671875 11.47417969 8.6228125 12.22570313 9 13 C8.67 13.66 8.34 14.32 8 15 C5 11.25 5 11.25 5 9 C4.34 9 3.68 9 3 9 C2.71125 8.360625 2.4225 7.72125 2.125 7.0625 C1.17176549 4.84793921 1.17176549 4.84793921 -1 4 C-1.33 5.65 -1.66 7.3 -2 9 C-2.66 9 -3.32 9 -4 9 C-4.33 9.99 -4.66 10.98 -5 12 C-5.33 11.34 -5.66 10.68 -6 10 C-4.78515625 7.6171875 -4.78515625 7.6171875 -3.0625 4.875 C-2.21365234 3.50988281 -2.21365234 3.50988281 -1.34765625 2.1171875 C-0.90292969 1.41851563 -0.45820313 0.71984375 0 0 Z " fill="#D5D7E1" transform="translate(229,22)"/>
<path d="M0 0 C3.6875 0.3125 3.6875 0.3125 6.125 1.875 C8.34946729 5.34516897 8.29828722 7.2405852 7.6875 11.3125 C6.24897456 14.15470771 4.5595044 16.73849395 2.6875 19.3125 C2.3575 18.6525 2.0275 17.9925 1.6875 17.3125 C2.70164686 15.57863601 3.71781623 13.84584155 4.75390625 12.125 C5.99407416 9.71731001 6.14297696 7.96944891 5.6875 5.3125 C3.81703174 3.01323702 3.81703174 3.01323702 0.8125 3.0625 C-2.16846832 3.30097747 -3.8017558 3.76742665 -6.3125 5.3125 C-3.92091837 0.36989796 -3.92091837 0.36989796 0 0 Z " fill="#E0E1E7" transform="translate(218.3125,112.6875)"/>
<path d="M0 0 C3.24299151 2.38957269 5.50902342 4.2047869 7 8 C8.98 8 10.96 8 13 8 C11.125 12.75 11.125 12.75 10 15 C5.93875609 13.64625203 5.39684351 11.73741172 3.3125 8.0625 C2.68988281 6.98097656 2.06726563 5.89945312 1.42578125 4.78515625 C0 2 0 2 0 0 Z " fill="#E6E7EB" transform="translate(165,75)"/>
<path d="M0 0 C0.625 1.8125 0.625 1.8125 1 4 C0.01 5.485 0.01 5.485 -1 7 C-1.66 7 -2.32 7 -3 7 C-3.2475 7.680625 -3.495 8.36125 -3.75 9.0625 C-4.74086986 11.39104417 -5.78054124 13.39948594 -7.0625 15.5625 C-9.04816906 18.71442057 -9.04816906 18.71442057 -9.5625 21.375 C-9.706875 21.91125 -9.85125 22.4475 -10 23 C-10.99 23.33 -11.98 23.66 -13 24 C-11.45196735 18.23684231 -8.51721614 13.62543026 -5.375 8.625 C-4.859375 7.79355469 -4.34375 6.96210938 -3.8125 6.10546875 C-2.54713205 4.06682038 -1.27621134 2.03187118 0 0 Z " fill="#BCC0D1" transform="translate(76,159)"/>
<path d="M0 0 C0 4.35543974 -1.65032345 7.18948757 -3.8671875 10.87890625 C-6 13 -6 13 -9.0703125 13.65234375 C-12.10330958 13.62724803 -15.00001517 13.43689099 -18 13 C-17.67 12.34 -17.34 11.68 -17 11 C-13.7 11 -10.4 11 -7 11 C-7 10.34 -7 9.68 -7 9 C-6.34 9 -5.68 9 -5 9 C-4.731875 8.2575 -4.46375 7.515 -4.1875 6.75 C-3.05770579 4.13363446 -1.79106798 2.19812889 0 0 Z " fill="#EBECEE" transform="translate(177,177)"/>
<path d="M0 0 C6.33333333 1.33333333 6.33333333 1.33333333 9 4 C9.26991906 6.68839385 9.08737357 9.29141936 9 12 C8.67 12 8.34 12 8 12 C7.690625 10.865625 7.38125 9.73125 7.0625 8.5625 C6.37075469 5.21224901 6.37075469 5.21224901 5 4 C2.04195427 3.66659529 2.04195427 3.66659529 -1 4 C-1.99 5.485 -1.99 5.485 -3 7 C-3.66 7 -4.32 7 -5 7 C-3.75023244 3.34683329 -3.32901247 2.21934164 0 0 Z " fill="#C1C5D4" transform="translate(245,156)"/>
<path d="M0 0 C0.66 0.33 1.32 0.66 2 1 C1.27683594 2.10408203 1.27683594 2.10408203 0.5390625 3.23046875 C-0.09257813 4.20628906 -0.72421875 5.18210937 -1.375 6.1875 C-2.31472656 7.63189453 -2.31472656 7.63189453 -3.2734375 9.10546875 C-5.04508639 11.90165809 -5.04508639 11.90165809 -6.09375 14.75 C-7.19495046 17.48401493 -8.54560139 18.44554755 -11 20 C-9.62825451 15.26711896 -7.56963615 11.31698731 -4.9375 7.1875 C-4.57333984 6.60291016 -4.20917969 6.01832031 -3.83398438 5.41601562 C-1.17597535 1.17597535 -1.17597535 1.17597535 0 0 Z " fill="#B9BDCF" transform="translate(110,8)"/>
<path d="M0 0 C1.19594292 3.99221233 0.68790338 6.14193513 -1 10 C-3 12.375 -3 12.375 -5 14 C-5.66 14 -6.32 14 -7 14 C-7.33 14.99 -7.66 15.98 -8 17 C-8.33 16.34 -8.66 15.68 -9 15 C-7.59104764 12.38211357 -6.13756909 9.88954328 -4.5625 7.375 C-3.9118457 6.31539062 -3.9118457 6.31539062 -3.24804688 5.234375 C-2.17251868 3.48516432 -1.08716275 1.74200346 0 0 Z " fill="#A8ADC4" transform="translate(25,150)"/>
<path d="M0 0 C3.32859708 3.04875927 5.50435293 6.21910958 7.75 10.125 C8.67039062 11.70667969 8.67039062 11.70667969 9.609375 13.3203125 C11 16 11 16 11 18 C10.01 18 9.02 18 8 18 C7.34 15.36 6.68 12.72 6 10 C5.34 10 4.68 10 4 10 C1.1605948 6.32547562 0 4.73113419 0 0 Z " fill="#A4AAC2" transform="translate(322,151)"/>
<path d="M0 0 C0.99 0.33 1.98 0.66 3 1 C2.12021484 1.80050781 2.12021484 1.80050781 1.22265625 2.6171875 C-2.0347493 6.10930944 -4.02941043 10.15380341 -6.31640625 14.3203125 C-8 17 -8 17 -11 19 C-9.52852919 15.01967146 -7.64511094 11.47100488 -5.5 7.8125 C-4.8915625 6.76707031 -4.283125 5.72164062 -3.65625 4.64453125 C-2 2 -2 2 0 0 Z " fill="#BABECF" transform="translate(225,3)"/>
<path d="M0 0 C6.08841153 5.7593082 8.5833588 11.13306162 11 19 C7.4882036 15.84559881 5.44790407 12.53598933 3.25 8.375 C2.63640625 7.22773437 2.0228125 6.08046875 1.390625 4.8984375 C0 2 0 2 0 0 Z " fill="#B5BACD" transform="translate(260,74)"/>
<path d="M0 0 C0.73828125 1.578125 0.73828125 1.578125 1 4 C-0.17956378 6.41155262 -1.36180363 8.51627124 -2.8125 10.75 C-3.36647461 11.65298828 -3.36647461 11.65298828 -3.93164062 12.57421875 C-4.89016178 14.09202066 -5.93906151 15.55193406 -7 17 C-7.66 17 -8.32 17 -9 17 C-7.68925635 12.53817564 -5.92933989 9.00381243 -3.375 5.125 C-2.74335937 4.15820312 -2.11171875 3.19140625 -1.4609375 2.1953125 C-0.73777344 1.10863281 -0.73777344 1.10863281 0 0 Z " fill="#A7ADC4" transform="translate(86,48)"/>
<path d="M0 0 C0.33 0.66 0.66 1.32 1 2 C0.19555664 3.87939453 0.19555664 3.87939453 -1.08984375 6.1328125 C-1.54423828 6.93847656 -1.99863281 7.74414062 -2.46679688 8.57421875 C-2.95212891 9.41597656 -3.43746094 10.25773438 -3.9375 11.125 C-4.41896484 11.97449219 -4.90042969 12.82398438 -5.39648438 13.69921875 C-6.59057183 15.80365011 -7.79196837 17.90355191 -9 20 C-9.66 20 -10.32 20 -11 20 C-9.36047417 15.3606824 -6.93128948 11.36144142 -4.375 7.1875 C-3.95476562 6.49462891 -3.53453125 5.80175781 -3.1015625 5.08789062 C-2.0710533 3.38989252 -1.03598319 1.69466386 0 0 Z " fill="#E2E4E9" transform="translate(239,163)"/>
<path d="M0 0 C0.66 0 1.32 0 2 0 C0.62712658 3.69876091 -1.06355453 6.9514476 -3.125 10.3125 C-3.66382812 11.19550781 -4.20265625 12.07851562 -4.7578125 12.98828125 C-5.37269531 13.98408203 -5.37269531 13.98408203 -6 15 C-6.70703125 13.359375 -6.70703125 13.359375 -7 11 C-5.63671875 8.203125 -5.63671875 8.203125 -3.6875 5.25 C-3.05199219 4.26515625 -2.41648437 3.2803125 -1.76171875 2.265625 C-1.18035156 1.51796875 -0.59898438 0.7703125 0 0 Z " fill="#A1A6C0" transform="translate(87,72)"/>
<path d="M0 0 C0.33 0.66 0.66 1.32 1 2 C0.22729492 3.78759766 0.22729492 3.78759766 -1.01953125 5.9140625 C-1.46490234 6.67460938 -1.91027344 7.43515625 -2.36914062 8.21875 C-2.84544922 9.0128125 -3.32175781 9.806875 -3.8125 10.625 C-4.27720703 11.42679688 -4.74191406 12.22859375 -5.22070312 13.0546875 C-7.83545064 17.46637054 -7.83545064 17.46637054 -9 19 C-9.66 19 -10.32 19 -11 19 C-9.51217153 12.71805757 -5.73394339 8.11655923 -2 3 C-1.34 2.01 -0.68 1.02 0 0 Z " fill="#DEE0E6" transform="translate(61,90)"/>
<path d="M0 0 C0.70703125 1.640625 0.70703125 1.640625 1 4 C-0.36328125 6.796875 -0.36328125 6.796875 -2.3125 9.75 C-3.26576172 11.22726563 -3.26576172 11.22726563 -4.23828125 12.734375 C-4.81964844 13.48203125 -5.40101562 14.2296875 -6 15 C-6.66 15 -7.32 15 -8 15 C-6.51194289 9.19657726 -3.40902445 4.82409121 0 0 Z " fill="#A3A9C2" transform="translate(95,33)"/>
<path d="M0 0 C0.66 0 1.32 0 2 0 C2 0.66 2 1.32 2 2 C3.03060547 1.96519531 3.03060547 1.96519531 4.08203125 1.9296875 C5.43361328 1.90261719 5.43361328 1.90261719 6.8125 1.875 C7.70582031 1.85179687 8.59914063 1.82859375 9.51953125 1.8046875 C12 2 12 2 15 4 C9.72 4 4.44 4 -1 4 C-0.67 2.68 -0.34 1.36 0 0 Z " fill="#E7E8EB" transform="translate(19,186)"/>
<path d="M0 0 C0.58984375 1.83984375 0.58984375 1.83984375 1 4 C0.04906703 5.69514137 -0.95107762 7.36368108 -2 9 C-2 9.99 -2 10.98 -2 12 C-2.804375 12.28875 -3.60875 12.5775 -4.4375 12.875 C-7.1326468 13.73262568 -7.1326468 13.73262568 -8 16 C-7.32599282 12.08885974 -5.45743967 9.12880818 -3.4375 5.75 C-2.79683594 4.67234375 -2.15617187 3.5946875 -1.49609375 2.484375 C-1.00238281 1.66453125 -0.50867188 0.8446875 0 0 Z " fill="#9CA2BD" transform="translate(85,143)"/>
<path d="M0 0 C0.66 0 1.32 0 2 0 C3.66473242 2.43056846 5.19287399 4.84314511 6.6875 7.375 C7.11611328 8.07367188 7.54472656 8.77234375 7.98632812 9.4921875 C9.05925001 11.28902931 10.03744173 13.14169878 11 15 C10.67 15.66 10.34 16.32 10 17 C8.8936781 15.43902526 7.79004215 13.87614673 6.6875 12.3125 C6.07261719 11.44238281 5.45773437 10.57226562 4.82421875 9.67578125 C0 2.59957173 0 2.59957173 0 0 Z " fill="#E4E5EA" transform="translate(285,117)"/>
<path d="M0 0 C0 3.90870731 -1.40876713 5.82885325 -3.375 9.1875 C-4.31472656 10.81751953 -4.31472656 10.81751953 -5.2734375 12.48046875 C-6.12808594 13.72763672 -6.12808594 13.72763672 -7 15 C-7.66 15 -8.32 15 -9 15 C-7.564062 9.77840726 -5.22421694 5.329958 -2 1 C-1.34 0.67 -0.68 0.34 0 0 Z " fill="#A2A8C1" transform="translate(40,127)"/>
<path d="M0 0 C2.99381354 2.80466193 5.1993621 5.61184269 7.3125 9.125 C8.11107422 10.42824219 8.11107422 10.42824219 8.92578125 11.7578125 C9.28027344 12.49773437 9.63476562 13.23765625 10 14 C9.67 14.66 9.34 15.32 9 16 C6.03163391 12.51984665 4.03827947 9.07655894 2 5 C1.34 4.67 0.68 4.34 0 4 C0 2.68 0 1.36 0 0 Z " fill="#D2D4DF" transform="translate(288,94)"/>
<path d="M0 0 C2 1.3125 2 1.3125 4 3 C4 3.99 4 4.98 4 6 C4.66 6 5.32 6 6 6 C6.53012738 7.28788008 7.0488329 8.58046678 7.5625 9.875 C7.85253906 10.59429687 8.14257812 11.31359375 8.44140625 12.0546875 C9 14 9 14 8 16 C4 9.25 4 9.25 4 7 C3.34 6.67 2.68 6.34 2 6 C0 3 0 3 0 0 Z " fill="#A2A8C1" transform="translate(138,56)"/>
<path d="M0 0 C3 1 3 1 4.625 3.1875 C6.08385732 6.17152633 6.61808685 8.71554694 7 12 C5.02 12 3.04 12 1 12 C1.99 11.67 2.98 11.34 4 11 C2.95902388 7.13351728 1.96301592 3.50538557 0 0 Z " fill="#C9CCDA" transform="translate(321,177)"/>
<path d="M0 0 C0.33 0.66 0.66 1.32 1 2 C-0.21484375 4.3828125 -0.21484375 4.3828125 -1.9375 7.125 C-2.50339844 8.03507812 -3.06929687 8.94515625 -3.65234375 9.8828125 C-4.09707031 10.58148438 -4.54179687 11.28015625 -5 12 C-5.80576116 9.67509679 -6.17106563 8.45649006 -5.29296875 6.11328125 C-2.22222222 1.11111111 -2.22222222 1.11111111 0 0 Z " fill="#AAAFC6" transform="translate(199,73)"/>
<path d="M0 0 C0.268125 0.61875 0.53625 1.2375 0.8125 1.875 C1.95556848 4.2995233 1.95556848 4.2995233 5 6 C2.03 6 -0.94 6 -4 6 C-2.25 1.125 -2.25 1.125 0 0 Z " fill="#DBDCE3" transform="translate(133,184)"/>
<path d="M0 0 C0.66 0 1.32 0 2 0 C1.39305845 3.15330554 0.3583335 5.18888867 -1.5625 7.75 C-2.24505859 8.67039063 -2.24505859 8.67039063 -2.94140625 9.609375 C-3.46541016 10.29773438 -3.46541016 10.29773438 -4 11 C-4.66 10.67 -5.32 10.34 -6 10 C-5.05065487 8.32819726 -4.09026687 6.66266064 -3.125 5 C-2.59132812 4.071875 -2.05765625 3.14375 -1.5078125 2.1875 C-1.01023438 1.465625 -0.51265625 0.74375 0 0 Z " fill="#CFD2DD" transform="translate(184,191)"/>
<path d="M0 0 C0.625 1.8125 0.625 1.8125 1 4 C0.01 5.485 0.01 5.485 -1 7 C-1.66 7 -2.32 7 -3 7 C-3 8.32 -3 9.64 -3 11 C-3.99 11.33 -4.98 11.66 -6 12 C-4.68139111 7.38486888 -2.78644563 3.90102388 0 0 Z " fill="#9CA2BD" transform="translate(135,153)"/>
<path d="M0 0 C5.01453907 2.50726953 5.5605642 4.12112841 8 9 C8 9.66 8 10.32 8 11 C7.34 11 6.68 11 6 11 C4.02 7.37 2.04 3.74 0 0 Z " fill="#C6CAD7" transform="translate(241,17)"/>
<path d="M0 0 C0.66 0.33 1.32 0.66 2 1 C1.40917986 2.48454806 0.80187345 3.96254351 0.1875 5.4375 C-0.14894531 6.26121094 -0.48539063 7.08492187 -0.83203125 7.93359375 C-2 10 -2 10 -5 11 C-3.77472971 6.94718288 -2.30119506 3.55639236 0 0 Z " fill="#AFB4C9" transform="translate(247,176)"/>
<path d="M0 0 C3.81287042 1.44626119 5.32707177 3.30194812 7 7 C6.57421875 9.1640625 6.57421875 9.1640625 6 11 C4.9944239 9.54550599 3.99569565 8.08627557 3 6.625 C2.443125 5.81289062 1.88625 5.00078125 1.3125 4.1640625 C0 2 0 2 0 0 Z " fill="#B9BECF" transform="translate(296,109)"/>
<path d="M0 0 C0.66 0 1.32 0 2 0 C0.66666667 3.33333333 -0.66666667 6.66666667 -2 10 C-2.66 10 -3.32 10 -4 10 C-3.43697042 6.05879291 -2.3208055 3.2491277 0 0 Z " fill="#B5B9CC" transform="translate(25,176)"/>
<path d="M0 0 C1 3 1 3 -0.25 6.625 C-2 10 -2 10 -5 11 C-3.55049545 7.2089881 -1.84827434 3.6125362 0 0 Z " fill="#D0D3DE" transform="translate(163,104)"/>
<path d="M0 0 C3.34726719 1.11575573 3.62079748 1.51344622 5.25 4.4375 C5.8275 5.613125 6.405 6.78875 7 8 C6.67 8.66 6.34 9.32 6 10 C3.38275905 7.63202009 1.67138271 5.10399646 0 2 C0 1.34 0 0.68 0 0 Z " fill="#BCC0D1" transform="translate(248,28)"/>
<path d="M0 0 C0.99 0.33 1.98 0.66 3 1 C4.6875 4.5625 4.6875 4.5625 6 8 C2.57701423 6.85900474 1.85241234 5.99914379 0 3 C0 2.01 0 1.02 0 0 Z " fill="#ACB1C7" transform="translate(153,82)"/>
<path d="M0 0 C0.66 0.33 1.32 0.66 2 1 C-0.475 5.455 -0.475 5.455 -3 10 C-4 6 -4 6 -2.0625 2.75 C-1.381875 1.8425 -0.70125 0.935 0 0 Z " fill="#A8AEC5" transform="translate(204,63)"/>
<path d="M0 0 C1.46726798 3.81489674 0.43336419 6.29011622 -1 10 C-1.66 9.67 -2.32 9.34 -3 9 C-1.125 2.25 -1.125 2.25 0 0 Z " fill="#626C9A" transform="translate(25,150)"/>
<path d="M0 0 C0 3.59857954 -0.95830515 5.09451118 -3 8 C-3.66 8 -4.32 8 -5 8 C-3.8141763 4.62496331 -2.72426311 2.35277269 0 0 Z " fill="#AEB3C8" transform="translate(159,114)"/>
<path d="M0 0 C0.66 0 1.32 0 2 0 C1.1875 2.9375 1.1875 2.9375 0 6 C-0.99 6.33 -1.98 6.66 -3 7 C-1.125 1.125 -1.125 1.125 0 0 Z " fill="#B2B7CB" transform="translate(188,184)"/>
<path d="M0 0 C2.64 0 5.28 0 8 0 C8 0.33 8 0.66 8 1 C6.2984375 1.433125 6.2984375 1.433125 4.5625 1.875 C3.386875 2.24625 2.21125 2.6175 1 3 C0.67 3.66 0.34 4.32 0 5 C-0.66 5 -1.32 5 -2 5 C-1.34 3.35 -0.68 1.7 0 0 Z " fill="#8D94B4" transform="translate(242,158)"/>
</svg>
